<?xml version="1.0" encoding="utf-8"?>
<!-- Generator: Adobe Illustrator 24.3.0, SVG Export Plug-In . SVG Version: 6.00 Build 0)  -->
<svg version="1.1" id="Layer_1" xmlns="http://www.w3.org/2000/svg" xmlns:xlink="http://www.w3.org/1999/xlink" x="0px" y="0px"
	 viewBox="0 0 539 553.6" style="enable-background:new 0 0 539 553.6;" xml:space="preserve">
<style type="text/css">
	.st0{fill:#0FB0E1;}
	.st1{opacity:0.5;}
	.st2{fill:#FFFFFF;}
	.st3{opacity:0.25;}
</style>
<g>
	<g>
		<g>
			<path class="st0" d="M236.7,361.8c0,0-3.9-5.7-6.4-9.9s-7-1.5-10.5,2s-10.5,9-10.5,9"/>
		</g>
		<path class="st0" d="M440.1,445.5v-7.7c24.2-2.2,48.3-4.6,59.8-6.2c21.9-3,37.9-4,38.9-5s-2-13-2-13s-0.6-2.5-1.5-6.3V1.8h-3
			l-1,389.5c-3.2-12.6-6.9-26.4-8.4-29.5l-287.1,0l-26.9,1h-9v-5c0,0-59.8,2-77.7,2s-118.6,3-120.6,3s-2,0-1,3s15,56.8,16,61.8
			c1,5,3,6,10,7c5.3,0.8,44.2,3.2,70,4.8l-30.2-1.8c0,0,8,32.9,15,50.8s9.9,19.9,14.9,19.9c7,0,4,4.5,7,4c11,0,62.8-1.9,62.8-1.9
			s-24.9-1.1-35.9-0.1s-13.9-12-18.9-26.9c-5-14.9-12-43.8-12-43.8c7.4,0.5,13.4,0.8,17,1c9.8,0.6,42.7,2,73.8,3
			c1.4,5.3,23,86.2,26.8,99.6c4,13.9,16.9,10,24.9,10c8,0,54.8,0.5,63.8,0.5c9,0,16-0.5,20.9-9.5c1.6-2.8,8.3-13.8,16.8-27.6
			c0,0,0.1,0,0.1,0c5.8,0,17,1.1,17-2.5c0-0.2,0-0.5-0.1-0.8c20.3,3.6,52,22.8,110.1,22.8h59v-3.6h-59c-54.9,0-90.8-20.3-111.6-23.1
			c-1.6-2.7-4.4-5.2-7.6-5.8c17.6-28.4,38-61.2,38-61.2l-5.9,0c0,0,0,0,0,0c9.7-0.7,24-1.9,39.5-3.2l-1.7,0.2v6h3v15v0.4
			c-4.1,0.6-7.3,1.9-10,4.6c-1,1-1,3,1,4s2,3,15.5,3c4-0.1,7.9-1.1,11.5-3c1,4,1,15.9,3,12c0.5-0.9,1-2.2,1.5-3.6
			c0.2,0.7,0.7,2.1,2.5,3.5c3.3,2.6,2-17.5,2-17.5l-0.4,1.2c0.2-0.6,0.3-1.1,0.4-1.5c1-3.5-1-15.9-4-15.9c-2.7,0-4.5,12.6-4.9,15.4
			c-0.6-0.4-2.1-1-4.1-1.6v-15.9H440.1z M442.1,463.4C442.1,463.4,442.1,463.5,442.1,463.4L442.1,463.4
			C442.1,463.4,442.1,463.4,442.1,463.4z"/>
		<g>
			<g>
				<path class="st0" d="M246.8,338.8h-12c0,0-1-2-2-2h-9.5c-1.5,0-2.5,0.8-2.5,2.9v4.1h27v-5L246.8,338.8z"/>
				<path class="st0" d="M228.9,350.3c-0.1-2,0-6,0-6h-5.5v6.6"/>
				<path class="st0" d="M223.4,330.2c0.1,2,0,6,0,6h5.5v-6.6"/>
				<path class="st0" d="M267.7,66.8H185c-2,0-2,0-2,3s-5,36.9-5,123.6s6,132.6,7,137.5c1,2.6,2,2,4,2h76.7c2,0,2,0,2-3
					s6-74.7,6-133.5s-4-123.1-4-126.6S267.7,66.8,267.7,66.8"/>
				<g class="st1">
					<g>
						<g>
							<rect x="252.8" y="199.3" class="st2" width="12.5" height="12.5"/>
							<rect x="239.5" y="199.3" class="st2" width="12.5" height="12.5"/>
							<rect x="226.3" y="199.3" class="st2" width="12.5" height="12.5"/>
							<rect x="213" y="199.3" class="st2" width="12.5" height="12.5"/>
							<rect x="199.8" y="199.3" class="st2" width="12.5" height="12.5"/>
							<rect x="186.5" y="199.3" class="st2" width="12.5" height="12.5"/>
							<rect x="252.8" y="212.7" class="st2" width="12.5" height="12.5"/>
							<rect x="239.5" y="212.7" class="st2" width="12.5" height="12.5"/>
							<rect x="226.3" y="212.7" class="st2" width="12.5" height="12.5"/>
							<rect x="213" y="212.7" class="st2" width="12.5" height="12.5"/>
							<rect x="199.8" y="212.7" class="st2" width="12.5" height="12.5"/>
							<rect x="186.5" y="212.7" class="st2" width="12.5" height="12.5"/>
							<rect x="252.8" y="226.1" class="st2" width="12.5" height="12.5"/>
							<rect x="239.5" y="226.1" class="st2" width="12.5" height="12.5"/>
							<rect x="226.3" y="226.1" class="st2" width="12.5" height="12.5"/>
							<rect x="213" y="226.1" class="st2" width="12.5" height="12.5"/>
							<rect x="199.8" y="226.1" class="st2" width="12.5" height="12.5"/>
							<rect x="186.5" y="226.1" class="st2" width="12.5" height="12.5"/>
							<rect x="252.8" y="239.5" class="st2" width="12.5" height="12.5"/>
							<rect x="239.5" y="239.5" class="st2" width="12.5" height="12.5"/>
							<rect x="226.3" y="239.5" class="st2" width="12.5" height="12.5"/>
							<rect x="213" y="239.5" class="st2" width="12.5" height="12.5"/>
							<rect x="199.8" y="239.5" class="st2" width="12.5" height="12.5"/>
							<rect x="186.5" y="239.5" class="st2" width="12.5" height="12.5"/>
							<rect x="252.8" y="252.8" class="st2" width="12.5" height="12.5"/>
							<rect x="239.5" y="252.8" class="st2" width="12.5" height="12.5"/>
							<rect x="226.3" y="252.8" class="st2" width="12.5" height="12.5"/>
							<rect x="213" y="252.8" class="st2" width="12.5" height="12.5"/>
							<rect x="199.8" y="252.8" class="st2" width="12.5" height="12.5"/>
							<rect x="186.5" y="252.8" class="st2" width="12.5" height="12.5"/>
							<rect x="252.8" y="266.2" class="st2" width="12.5" height="12.5"/>
							<rect x="239.5" y="266.2" class="st2" width="12.5" height="12.5"/>
							<rect x="226.3" y="266.2" class="st2" width="12.5" height="12.5"/>
							<rect x="213" y="266.2" class="st2" width="12.5" height="12.5"/>
							<rect x="199.8" y="266.2" class="st2" width="12.5" height="12.5"/>
							<rect x="186.5" y="266.2" class="st2" width="12.5" height="12.5"/>
							<rect x="252.8" y="279.6" class="st2" width="12.5" height="12.5"/>
							<rect x="239.5" y="279.6" class="st2" width="12.5" height="12.5"/>
							<rect x="226.3" y="279.6" class="st2" width="12.5" height="12.5"/>
							<rect x="213" y="279.6" class="st2" width="12.5" height="12.5"/>
							<rect x="199.8" y="279.6" class="st2" width="12.5" height="12.5"/>
							<rect x="186.5" y="279.6" class="st2" width="12.5" height="12.5"/>
							<rect x="252.8" y="293" class="st2" width="12.5" height="12.5"/>
							<rect x="239.5" y="293" class="st2" width="12.5" height="12.5"/>
							<rect x="226.3" y="293" class="st2" width="12.5" height="12.5"/>
							<rect x="213" y="293" class="st2" width="12.5" height="12.5"/>
							<rect x="199.8" y="293" class="st2" width="12.5" height="12.5"/>
							<rect x="186.5" y="293" class="st2" width="12.5" height="12.5"/>
						</g>
					</g>
				</g>
				<g class="st1">
					<g>
						<g>
							<rect x="252.8" y="83.7" class="st2" width="12.5" height="12.5"/>
							<rect x="239.5" y="83.7" class="st2" width="12.5" height="12.5"/>
							<rect x="226.3" y="83.7" class="st2" width="12.5" height="12.5"/>
							<rect x="213" y="83.7" class="st2" width="12.5" height="12.5"/>
							<rect x="199.8" y="83.7" class="st2" width="12.5" height="12.5"/>
							<rect x="186.5" y="83.7" class="st2" width="12.5" height="12.5"/>
							<rect x="252.8" y="97.1" class="st2" width="12.5" height="12.5"/>
							<rect x="239.5" y="97.1" class="st2" width="12.5" height="12.5"/>
							<rect x="226.3" y="97.1" class="st2" width="12.5" height="12.5"/>
							<rect x="213" y="97.1" class="st2" width="12.5" height="12.5"/>
							<rect x="199.8" y="97.1" class="st2" width="12.5" height="12.5"/>
							<rect x="186.5" y="97.1" class="st2" width="12.5" height="12.5"/>
							<rect x="252.8" y="110.5" class="st2" width="12.5" height="12.5"/>
							<rect x="239.5" y="110.5" class="st2" width="12.5" height="12.5"/>
							<rect x="226.3" y="110.5" class="st2" width="12.5" height="12.5"/>
							<rect x="213" y="110.5" class="st2" width="12.5" height="12.5"/>
							<rect x="199.8" y="110.5" class="st2" width="12.5" height="12.5"/>
							<rect x="186.5" y="110.5" class="st2" width="12.5" height="12.5"/>
							<rect x="252.8" y="123.9" class="st2" width="12.5" height="12.5"/>
							<rect x="239.5" y="123.9" class="st2" width="12.5" height="12.5"/>
							<rect x="226.3" y="123.9" class="st2" width="12.5" height="12.5"/>
							<rect x="213" y="123.9" class="st2" width="12.5" height="12.5"/>
							<rect x="199.8" y="123.9" class="st2" width="12.5" height="12.5"/>
							<rect x="186.5" y="123.9" class="st2" width="12.5" height="12.5"/>
							<rect x="252.8" y="137.2" class="st2" width="12.5" height="12.5"/>
							<rect x="239.5" y="137.2" class="st2" width="12.5" height="12.5"/>
							<rect x="226.3" y="137.2" class="st2" width="12.5" height="12.5"/>
							<rect x="213" y="137.2" class="st2" width="12.5" height="12.5"/>
							<rect x="199.8" y="137.2" class="st2" width="12.5" height="12.5"/>
							<rect x="186.5" y="137.2" class="st2" width="12.5" height="12.5"/>
							<rect x="252.8" y="150.6" class="st2" width="12.5" height="12.5"/>
							<rect x="239.5" y="150.6" class="st2" width="12.5" height="12.5"/>
							<rect x="226.3" y="150.6" class="st2" width="12.5" height="12.5"/>
							<rect x="213" y="150.6" class="st2" width="12.5" height="12.5"/>
							<rect x="199.8" y="150.6" class="st2" width="12.5" height="12.5"/>
							<rect x="186.5" y="150.6" class="st2" width="12.5" height="12.5"/>
							<rect x="252.8" y="164" class="st2" width="12.5" height="12.5"/>
							<rect x="239.5" y="164" class="st2" width="12.5" height="12.5"/>
							<rect x="226.3" y="164" class="st2" width="12.5" height="12.5"/>
							<rect x="213" y="164" class="st2" width="12.5" height="12.5"/>
							<rect x="199.8" y="164" class="st2" width="12.5" height="12.5"/>
							<rect x="186.5" y="164" class="st2" width="12.5" height="12.5"/>
							<rect x="252.8" y="177.4" class="st2" width="12.5" height="12.5"/>
							<rect x="239.5" y="177.4" class="st2" width="12.5" height="12.5"/>
							<rect x="226.3" y="177.4" class="st2" width="12.5" height="12.5"/>
							<rect x="213" y="177.4" class="st2" width="12.5" height="12.5"/>
							<rect x="199.8" y="177.4" class="st2" width="12.5" height="12.5"/>
							<rect x="186.5" y="177.4" class="st2" width="12.5" height="12.5"/>
						</g>
					</g>
				</g>
				<g class="st1">
					<g>
						<g>
							<path class="st2" d="M242.3,453.1c1.5-2.8,1.1-6.3-1.1-8.7c4.6-5,9.8-9.3,15.5-12.9c1.7,2.4,4.6,3.6,7.5,3.1
								c0.5-0.1,1-0.2,1.5-0.4c7,9.7,16.8,17,28.1,21c1.8,0.6,3.5,1.2,5.3,1.7c0,0.3,0,0.5,0.1,0.8c0.5,3.6,3.5,6.4,7.1,6.7
								c0,0.3,0,0.6,0,0.9c-0.6,22.2-14.4,40.2-22.7,48.3c-1.5-2.6-4.4-4.2-7.4-3.9C272,485.9,260.6,466.9,242.3,453.1"/>
							<path class="st2" d="M340.1,457.8c-8.4,0.9-16.9,1-25.4,0.3c0.1-0.8,0.1-1.7,0-2.5c-0.6-4.2-4.5-7.2-8.7-6.6
								c-2.6-8.5-6.9-16.3-12.7-23c0.9-1.1,1.6-2.4,1.8-3.8c19.9,1.7,38.1,12.9,44.7,17.4c0.9,3,1.6,6.1,2,9.2c0.4,3,0.6,6,0.6,9
								L340.1,457.8"/>
							<path class="st2" d="M279.5,420.9c-3.2,0.5-6.4,1.3-9.4,2.4c-1.5-2.9-4.7-4.6-8-4.1c-0.7,0.1-1.4,0.3-2,0.6
								c-1.7-4.4-3.1-8.9-4.1-13.5c1.9-0.7,3.5-2,4.4-3.9c5.3,3.4,16.1,10.5,20.6,13.8C280.1,417.6,279.6,419.3,279.5,420.9"/>
							<path class="st2" d="M254.1,406.7c1,4.8,2.4,9.5,4.2,14c-2.3,1.7-3.4,4.5-3,7.3c0.1,0.6,0.3,1.3,0.5,1.9
								c-5.9,3.7-11.3,8.2-16,13.3c-3.5-2.5-8.4-1.7-10.9,1.8c-6.5-2.8-10.2-2.2-12.5-1.9c-0.3,0.1-0.6,0.1-0.9,0.1
								c4.1-17.4,15.2-32.3,30.7-41.2C247.7,405.1,250.8,407,254.1,406.7"/>
							<path class="st2" d="M295.2,420.2c0-0.2,0-0.4,0-0.5c-0.6-4.3-4.6-7.2-8.9-6.6c0,0,0,0,0,0c-1.5,0.2-2.9,0.9-4,1.9
								c-4.6-3.5-16-10.9-21.2-14.2c0.2-1,0.3-2,0.1-3.1c-0.1-0.5-0.2-1.1-0.4-1.6c32.7-9.3,67,8.5,78.1,40.6
								C331,431.5,313.9,421.8,295.2,420.2"/>
							<path class="st2" d="M231.6,456.5c3.2,1.7,7.3,1,9.6-1.8c17.9,13.5,29,32,33.2,55.4c-3.7,1.2-6,4.9-5.4,8.7
								c0.1,0.9,0.4,1.8,0.9,2.6c-22.6-2.9-42-17.6-51-38.6C220.1,477,224.5,466.8,231.6,456.5"/>
							<path class="st2" d="M284.7,516.6c-0.1-0.3-0.1-0.7-0.2-1c10.2-9.5,23.2-28.7,23.7-50c0-0.4,0-0.7,0-1c2.7-0.4,4.9-2.1,6-4.6
								c3.9,0.4,7.7,0.5,11.2,0.5c6.1,0,11.3-0.5,14.9-0.8c0.8-0.1,1.6-0.1,2.2-0.2c-0.8,31.3-24.1,57.4-55.1,61.9
								c-1.2,0.2-2.5,0.3-3.7,0.4C284.6,520.3,284.9,518.5,284.7,516.6"/>
							<path class="st2" d="M267.5,433.5c2.5-1.7,3.9-4.7,3.5-7.7c0-0.3-0.1-0.6-0.2-0.8c2.9-1,5.9-1.7,9-2.2c1,3.9,4.8,6.4,8.7,5.8
								c1.3-0.2,2.5-0.7,3.5-1.4c5.6,6.5,9.8,14,12.3,22.2c-2.6,0.9-4.5,3.1-5,5.8c-1.6-0.5-3.2-1-4.8-1.6
								C283.6,449.8,274.2,442.8,267.5,433.5"/>
							<path class="st2" d="M215.2,445.1c0.5,0,1.1-0.1,1.6-0.2c2-0.3,5.4-0.9,11.3,1.7c-1.3,3.1-0.5,6.6,2,8.8
								c-6.3,9.2-10.5,18.2-12.2,24.5C213.7,468.8,212.8,456.7,215.2,445.1"/>
						</g>
					</g>
				</g>
				<g class="st3">
					<g>
						<g>
							<path class="st0" d="M247.9,349.3l-8.4-4.8c0,0,0.3-2.1-0.4-2.5l-6.6-3.8c-1-0.6-2.1-0.3-3.2,1.5s-2,3.5-2,3.5l9.8,5.6
								l8.4,4.8l0.7,0.4l2.5-4.3L247.9,349.3z"/>
							<path class="st0" d="M229.6,351.9c0.9-1.8,3-5.2,3-5.2l-3.8-2.2l-3.3,5.7"/>
							<path class="st0" d="M235.8,332.4c-0.9,1.8-3,5.2-3,5.2l3.8,2.2c0,0,2.8-4.9,3.3-5.7"/>
							<path class="st0" d="M398.6,122.1l-57.8-33.4c-1.4-0.8-1.4-0.8-2.9,1.8s-21.9,29.9-65.3,105s-62.1,117.2-63.9,121.9
								c-0.6,2.7,0.4,2.5,1.8,3.3l53.7,31c1.4,0.8,1.4,0.8,2.9-1.8s41.6-62.3,71-113.3s58.8-108.2,60.5-111.2
								S398.6,122.1,398.6,122.1"/>
							<g class="st1">
								<g>
									<g>
										
											<rect x="316.9" y="233.7" transform="matrix(0.5 -0.866 0.866 0.5 -45.2177 399.1697)" class="st2" width="12.5" height="10.1"/>
										
											<rect x="307.6" y="228.4" transform="matrix(0.5 -0.866 0.866 0.5 -45.2212 388.4697)" class="st2" width="12.5" height="10.1"/>
										
											<rect x="298.3" y="223" transform="matrix(0.5 -0.866 0.866 0.5 -45.2148 377.7697)" class="st2" width="12.5" height="10.1"/>
										
											<rect x="289.1" y="217.7" transform="matrix(0.5 -0.866 0.866 0.5 -45.2183 367.0697)" class="st2" width="12.5" height="10.1"/>
										
											<rect x="279.8" y="212.3" transform="matrix(0.5 -0.866 0.866 0.5 -45.2218 356.3597)" class="st2" width="12.5" height="10.1"/>
										
											<rect x="270.5" y="207" transform="matrix(0.5 -0.866 0.866 0.5 -45.2154 345.6597)" class="st2" width="12.5" height="10.1"/>
										
											<rect x="310.2" y="245.3" transform="matrix(0.5 -0.866 0.866 0.5 -58.6027 399.1636)" class="st2" width="12.5" height="10.1"/>
										
											<rect x="300.9" y="240" transform="matrix(0.5 -0.866 0.866 0.5 -58.6062 388.4536)" class="st2" width="12.5" height="10.1"/>
										
											<rect x="291.6" y="234.6" transform="matrix(0.5 -0.866 0.866 0.5 -58.5998 377.7536)" class="st2" width="12.5" height="10.1"/>
										
											<rect x="282.4" y="229.2" transform="matrix(0.5 -0.866 0.866 0.5 -58.5983 367.0622)" class="st2" width="12.5" height="10.1"/>
										
											<rect x="273.1" y="223.9" transform="matrix(0.5 -0.866 0.866 0.5 -58.6018 356.3622)" class="st2" width="12.5" height="10.1"/>
										
											<rect x="263.8" y="218.6" transform="matrix(0.5 -0.866 0.866 0.5 -58.6053 345.6622)" class="st2" width="12.5" height="10.1"/>
										
											<rect x="303.5" y="256.9" transform="matrix(0.5 -0.866 0.866 0.5 -71.9827 399.1562)" class="st2" width="12.5" height="10.1"/>
										
											<rect x="294.2" y="251.5" transform="matrix(0.5 -0.866 0.866 0.5 -71.9862 388.4562)" class="st2" width="12.5" height="10.1"/>
										
											<rect x="284.9" y="246.2" transform="matrix(0.5 -0.866 0.866 0.5 -71.9898 377.7562)" class="st2" width="12.5" height="10.1"/>
										
											<rect x="275.7" y="240.8" transform="matrix(0.5 -0.866 0.866 0.5 -71.9833 367.0562)" class="st2" width="12.5" height="10.1"/>
										
											<rect x="266.4" y="235.5" transform="matrix(0.5 -0.866 0.866 0.5 -71.9868 356.3562)" class="st2" width="12.5" height="10.1"/>
										
											<rect x="257.1" y="230.1" transform="matrix(0.5 -0.866 0.866 0.5 -71.9903 345.6562)" class="st2" width="12.5" height="10.1"/>
										
											<rect x="296.8" y="268.5" transform="matrix(0.5 -0.866 0.866 0.5 -85.3627 399.1588)" class="st2" width="12.5" height="10.1"/>
										
											<rect x="287.5" y="263.1" transform="matrix(0.5 -0.866 0.866 0.5 -85.3662 388.4588)" class="st2" width="12.5" height="10.1"/>
										
											<rect x="278.2" y="257.8" transform="matrix(0.5 -0.866 0.866 0.5 -85.3698 377.7588)" class="st2" width="12.5" height="10.1"/>
										
											<rect x="269" y="252.4" transform="matrix(0.5 -0.866 0.866 0.5 -85.3633 367.0587)" class="st2" width="12.5" height="10.1"/>
										
											<rect x="259.7" y="247.1" transform="matrix(0.5 -0.866 0.866 0.5 -85.3668 356.3587)" class="st2" width="12.5" height="10.1"/>
										
											<rect x="250.4" y="241.7" transform="matrix(0.5 -0.866 0.866 0.5 -85.3704 345.6588)" class="st2" width="12.5" height="10.1"/>
										
											<rect x="290.1" y="280.1" transform="matrix(0.5 -0.866 0.866 0.5 -98.7427 399.1613)" class="st2" width="12.5" height="10.1"/>
										
											<rect x="280.8" y="274.7" transform="matrix(0.5 -0.866 0.866 0.5 -98.7462 388.4613)" class="st2" width="12.5" height="10.1"/>
										
											<rect x="271.5" y="269.4" transform="matrix(0.5 -0.866 0.866 0.5 -98.7498 377.7613)" class="st2" width="12.5" height="10.1"/>
										
											<rect x="262.3" y="264" transform="matrix(0.5 -0.866 0.866 0.5 -98.7533 367.0613)" class="st2" width="12.5" height="10.1"/>
										
											<rect x="253" y="258.7" transform="matrix(0.5 -0.866 0.866 0.5 -98.7468 356.3613)" class="st2" width="12.5" height="10.1"/>
										
											<rect x="243.7" y="253.3" transform="matrix(0.5 -0.866 0.866 0.5 -98.7504 345.6613)" class="st2" width="12.5" height="10.1"/>
										
											<rect x="283.4" y="291.7" transform="matrix(0.5 -0.866 0.866 0.5 -112.1327 399.1639)" class="st2" width="12.5" height="10.1"/>
										
											<rect x="274.1" y="286.3" transform="matrix(0.5 -0.866 0.866 0.5 -112.1262 388.4639)" class="st2" width="12.5" height="10.1"/>
										
											<rect x="264.9" y="281" transform="matrix(0.5 -0.866 0.866 0.5 -112.1298 377.7639)" class="st2" width="12.5" height="10.1"/>
										
											<rect x="255.6" y="275.6" transform="matrix(0.5 -0.866 0.866 0.5 -112.1333 367.0639)" class="st2" width="12.5" height="10.1"/>
										
											<rect x="246.3" y="270.3" transform="matrix(0.5 -0.866 0.866 0.5 -112.1268 356.3639)" class="st2" width="12.5" height="10.1"/>
										
											<rect x="237.1" y="264.9" transform="matrix(0.5 -0.866 0.866 0.5 -112.1303 345.6639)" class="st2" width="12.5" height="10.1"/>
										
											<rect x="276.7" y="303.3" transform="matrix(0.5 -0.866 0.866 0.5 -125.5177 399.1578)" class="st2" width="12.5" height="10.1"/>
										
											<rect x="267.4" y="297.9" transform="matrix(0.5 -0.866 0.866 0.5 -125.5112 388.4578)" class="st2" width="12.5" height="10.1"/>
										
											<rect x="258.2" y="292.5" transform="matrix(0.5 -0.866 0.866 0.5 -125.5098 377.7665)" class="st2" width="12.5" height="10.1"/>
										
											<rect x="248.9" y="287.2" transform="matrix(0.5 -0.866 0.866 0.5 -125.5133 367.0665)" class="st2" width="12.5" height="10.1"/>
										
											<rect x="239.6" y="281.8" transform="matrix(0.5 -0.866 0.866 0.5 -125.5068 356.3665)" class="st2" width="12.5" height="10.1"/>
										
											<rect x="230.4" y="276.5" transform="matrix(0.5 -0.866 0.866 0.5 -125.5104 345.6665)" class="st2" width="12.5" height="10.1"/>
										
											<rect x="270" y="314.8" transform="matrix(0.5 -0.866 0.866 0.5 -138.8977 399.1604)" class="st2" width="12.5" height="10.1"/>
										
											<rect x="260.7" y="309.5" transform="matrix(0.5 -0.866 0.866 0.5 -138.9012 388.4604)" class="st2" width="12.5" height="10.1"/>
										
											<rect x="251.5" y="304.1" transform="matrix(0.5 -0.866 0.866 0.5 -138.8948 377.7604)" class="st2" width="12.5" height="10.1"/>
										
											<rect x="242.2" y="298.8" transform="matrix(0.5 -0.866 0.866 0.5 -138.8983 367.0604)" class="st2" width="12.5" height="10.1"/>
										
											<rect x="232.9" y="293.4" transform="matrix(0.5 -0.866 0.866 0.5 -138.9018 356.3604)" class="st2" width="12.5" height="10.1"/>
										
											<rect x="223.7" y="288.1" transform="matrix(0.5 -0.866 0.866 0.5 -138.8867 345.6554)" class="st2" width="12.5" height="10.1"/>
									</g>
								</g>
							</g>
							<g class="st1">
								<g>
									<g>
										
											<rect x="374.6" y="133.6" transform="matrix(0.5 -0.866 0.866 0.5 70.3773 399.1535)" class="st2" width="12.5" height="10.1"/>
										
											<rect x="365.4" y="128.3" transform="matrix(0.5 -0.866 0.866 0.5 70.3738 388.4535)" class="st2" width="12.5" height="10.1"/>
										
											<rect x="356.1" y="122.9" transform="matrix(0.5 -0.866 0.866 0.5 70.3802 377.7535)" class="st2" width="12.5" height="10.1"/>
										
											<rect x="346.8" y="117.5" transform="matrix(0.5 -0.866 0.866 0.5 70.3767 367.0535)" class="st2" width="12.5" height="10.1"/>
										
											<rect x="337.6" y="112.2" transform="matrix(0.5 -0.866 0.866 0.5 70.3732 356.3535)" class="st2" width="12.5" height="10.1"/>
										
											<rect x="328.3" y="106.8" transform="matrix(0.5 -0.866 0.866 0.5 70.3797 345.6535)" class="st2" width="12.5" height="10.1"/>
										
											<rect x="367.9" y="145.2" transform="matrix(0.5 -0.866 0.866 0.5 56.9973 399.1561)" class="st2" width="12.5" height="10.1"/>
										
											<rect x="358.7" y="139.8" transform="matrix(0.5 -0.866 0.866 0.5 56.9938 388.4561)" class="st2" width="12.5" height="10.1"/>
										
											<rect x="349.4" y="134.5" transform="matrix(0.5 -0.866 0.866 0.5 57.0002 377.7561)" class="st2" width="12.5" height="10.1"/>
										
											<rect x="340.1" y="129.1" transform="matrix(0.5 -0.866 0.866 0.5 56.9967 367.0561)" class="st2" width="12.5" height="10.1"/>
										
											<rect x="330.9" y="123.8" transform="matrix(0.5 -0.866 0.866 0.5 56.9932 356.3561)" class="st2" width="12.5" height="10.1"/>
										
											<rect x="321.6" y="118.4" transform="matrix(0.5 -0.866 0.866 0.5 56.9896 345.6561)" class="st2" width="12.5" height="10.1"/>
										
											<rect x="361.3" y="156.8" transform="matrix(0.5 -0.866 0.866 0.5 43.6173 399.1587)" class="st2" width="12.5" height="10.1"/>
										
											<rect x="352" y="151.4" transform="matrix(0.5 -0.866 0.866 0.5 43.6138 388.4587)" class="st2" width="12.5" height="10.1"/>
										
											<rect x="342.7" y="146.1" transform="matrix(0.5 -0.866 0.866 0.5 43.6102 377.7587)" class="st2" width="12.5" height="10.1"/>
										
											<rect x="333.5" y="140.7" transform="matrix(0.5 -0.866 0.866 0.5 43.6167 367.0587)" class="st2" width="12.5" height="10.1"/>
										
											<rect x="324.2" y="135.4" transform="matrix(0.5 -0.866 0.866 0.5 43.6132 356.3587)" class="st2" width="12.5" height="10.1"/>
										
											<rect x="314.9" y="130" transform="matrix(0.5 -0.866 0.866 0.5 43.6096 345.6587)" class="st2" width="12.5" height="10.1"/>
										
											<rect x="354.6" y="168.4" transform="matrix(0.5 -0.866 0.866 0.5 30.2373 399.1613)" class="st2" width="12.5" height="10.1"/>
										
											<rect x="345.3" y="163" transform="matrix(0.5 -0.866 0.866 0.5 30.2338 388.4613)" class="st2" width="12.5" height="10.1"/>
										
											<rect x="336" y="157.7" transform="matrix(0.5 -0.866 0.866 0.5 30.2302 377.7613)" class="st2" width="12.5" height="10.1"/>
										
											<rect x="326.8" y="152.3" transform="matrix(0.5 -0.866 0.866 0.5 30.2367 367.0613)" class="st2" width="12.5" height="10.1"/>
										
											<rect x="317.5" y="147" transform="matrix(0.5 -0.866 0.866 0.5 30.2332 356.3613)" class="st2" width="12.5" height="10.1"/>
										
											<rect x="308.2" y="141.6" transform="matrix(0.5 -0.866 0.866 0.5 30.2296 345.6613)" class="st2" width="12.5" height="10.1"/>
										
											<rect x="347.9" y="180" transform="matrix(0.5 -0.866 0.866 0.5 16.8573 399.1639)" class="st2" width="12.5" height="10.1"/>
										
											<rect x="338.6" y="174.6" transform="matrix(0.5 -0.866 0.866 0.5 16.8538 388.4639)" class="st2" width="12.5" height="10.1"/>
										
											<rect x="329.3" y="169.3" transform="matrix(0.5 -0.866 0.866 0.5 16.8502 377.7639)" class="st2" width="12.5" height="10.1"/>
										
											<rect x="320.1" y="163.9" transform="matrix(0.5 -0.866 0.866 0.5 16.8467 367.0639)" class="st2" width="12.5" height="10.1"/>
										
											<rect x="310.8" y="158.6" transform="matrix(0.5 -0.866 0.866 0.5 16.8532 356.3639)" class="st2" width="12.5" height="10.1"/>
										
											<rect x="301.5" y="153.2" transform="matrix(0.5 -0.866 0.866 0.5 16.8496 345.6639)" class="st2" width="12.5" height="10.1"/>
										
											<rect x="341.2" y="191.6" transform="matrix(0.5 -0.866 0.866 0.5 3.4623 399.1578)" class="st2" width="12.5" height="10.1"/>
										
											<rect x="331.9" y="186.2" transform="matrix(0.5 -0.866 0.866 0.5 3.4688 388.4578)" class="st2" width="12.5" height="10.1"/>
										
											<rect x="322.7" y="180.8" transform="matrix(0.5 -0.866 0.866 0.5 3.4652 377.7578)" class="st2" width="12.5" height="10.1"/>
										
											<rect x="313.4" y="175.5" transform="matrix(0.5 -0.866 0.866 0.5 3.4617 367.0578)" class="st2" width="12.5" height="10.1"/>
										
											<rect x="304.1" y="170.1" transform="matrix(0.5 -0.866 0.866 0.5 3.4682 356.3578)" class="st2" width="12.5" height="10.1"/>
										
											<rect x="294.9" y="164.8" transform="matrix(0.5 -0.866 0.866 0.5 3.4646 345.6578)" class="st2" width="12.5" height="10.1"/>
										
											<rect x="334.5" y="203.1" transform="matrix(0.5 -0.866 0.866 0.5 -9.9177 399.1604)" class="st2" width="12.5" height="10.1"/>
										
											<rect x="325.2" y="197.8" transform="matrix(0.5 -0.866 0.866 0.5 -9.9112 388.4604)" class="st2" width="12.5" height="10.1"/>
										
											<rect x="316" y="192.4" transform="matrix(0.5 -0.866 0.866 0.5 -9.9148 377.7604)" class="st2" width="12.5" height="10.1"/>
										
											<rect x="306.7" y="187.1" transform="matrix(0.5 -0.866 0.866 0.5 -9.9183 367.0604)" class="st2" width="12.5" height="10.1"/>
										
											<rect x="297.4" y="181.7" transform="matrix(0.5 -0.866 0.866 0.5 -9.9118 356.3604)" class="st2" width="12.5" height="10.1"/>
										
											<rect x="288.2" y="176.4" transform="matrix(0.5 -0.866 0.866 0.5 -9.9153 345.6604)" class="st2" width="12.5" height="10.1"/>
										
											<rect x="327.8" y="214.7" transform="matrix(0.5 -0.866 0.866 0.5 -23.2977 399.163)" class="st2" width="12.5" height="10.1"/>
										
											<rect x="318.5" y="209.4" transform="matrix(0.5 -0.866 0.866 0.5 -23.2912 388.463)" class="st2" width="12.5" height="10.1"/>
										
											<rect x="309.3" y="204" transform="matrix(0.5 -0.866 0.866 0.5 -23.2948 377.7629)" class="st2" width="12.5" height="10.1"/>
										
											<rect x="300" y="198.7" transform="matrix(0.5 -0.866 0.866 0.5 -23.2983 367.063)" class="st2" width="12.5" height="10.1"/>
										
											<rect x="290.7" y="193.3" transform="matrix(0.5 -0.866 0.866 0.5 -23.3018 356.3629)" class="st2" width="12.5" height="10.1"/>
										
											<rect x="281.5" y="188" transform="matrix(0.5 -0.866 0.866 0.5 -23.2953 345.663)" class="st2" width="12.5" height="10.1"/>
									</g>
								</g>
							</g>
						</g>
					</g>
				</g>
				<g class="st3">
					<g>
						<g>
							<path class="st0" d="M240.9,352.5l-1.5-3.5c0,0,1.7-1.1,1.6-1.4l-1.2-2.7c-0.2-0.4-1.1-0.4-3,0.5l-3.7,1.7l1.8,4l1.5,3.5
								l0.1,0.3l4.6-2L240.9,352.5z"/>
							<path class="st0" d="M228.2,351.9c1.8-0.8,5.5-2.4,5.5-2.4l-0.7-1.6l-6,2.6"/>
							<path class="st0" d="M245.8,342.2c-1.8,0.8-5.5,2.4-5.5,2.4l0.7,1.6l6-2.6"/>
							<path class="st0" d="M492.6,248.9c-0.2-0.6-10.3-23.4-10.5-23.9s-0.3-0.6-3,0.6s-34.4,13.4-113.7,48.4s-120.6,55.1-125,57.4
								c-2.3,1.4-1.6,1.4-1.3,2s9.5,21.6,9.8,22.2s0.2,0.6,3-0.6s69.2-28.4,123-52.1s112.1-50.7,115.3-52.1S492.6,249,492.6,248.9"
								/>
							<g class="st1">
								<g>
									<g>
										
											<rect x="358.3" y="300.3" transform="matrix(0.9153 -0.4027 0.4027 0.9153 -90.8826 172.3995)" class="st2" width="12.5" height="3.9"/>
										
											<rect x="356.6" y="296.5" transform="matrix(0.9153 -0.4027 0.4027 0.9153 -89.4828 171.3985)" class="st2" width="12.5" height="3.9"/>
										
											<rect x="354.9" y="292.7" transform="matrix(0.9153 -0.4027 0.4027 0.9153 -88.078 170.3909)" class="st2" width="12.5" height="3.9"/>
										
											<rect x="353.2" y="288.8" transform="matrix(0.9153 -0.4027 0.4027 0.9153 -86.6805 169.3866)" class="st2" width="12.5" height="3.9"/>
										
											<rect x="351.5" y="285" transform="matrix(0.9153 -0.4027 0.4027 0.9153 -85.2767 168.3848)" class="st2" width="12.5" height="3.9"/>
										
											<rect x="349.8" y="281.2" transform="matrix(0.9153 -0.4027 0.4027 0.9153 -83.8759 167.378)" class="st2" width="12.5" height="3.9"/>
										
											<rect x="346" y="305.7" transform="matrix(0.9153 -0.4027 0.4027 0.9153 -94.0899 167.9214)" class="st2" width="12.5" height="3.9"/>
										
											<rect x="344.3" y="301.9" transform="matrix(0.9153 -0.4027 0.4027 0.9153 -92.6901 166.9204)" class="st2" width="12.5" height="3.9"/>
										
											<rect x="342.6" y="298" transform="matrix(0.9153 -0.4027 0.4027 0.9153 -91.2852 165.9128)" class="st2" width="12.5" height="3.9"/>
										
											<rect x="340.9" y="294.2" transform="matrix(0.9153 -0.4027 0.4027 0.9153 -89.8878 164.9085)" class="st2" width="12.5" height="3.9"/>
										
											<rect x="339.3" y="290.4" transform="matrix(0.9153 -0.4027 0.4027 0.9153 -88.488 163.9075)" class="st2" width="12.5" height="3.9"/>
										
											<rect x="337.6" y="286.5" transform="matrix(0.9153 -0.4027 0.4027 0.9153 -87.0823 162.9039)" class="st2" width="12.5" height="3.9"/>
										
											<rect x="333.8" y="311.1" transform="matrix(0.9153 -0.4027 0.4027 0.9153 -97.2988 163.4474)" class="st2" width="12.5" height="3.9"/>
										
											<rect x="332.1" y="307.3" transform="matrix(0.9153 -0.4027 0.4027 0.9153 -95.8973 162.4422)" class="st2" width="12.5" height="3.9"/>
										
											<rect x="330.4" y="303.4" transform="matrix(0.9153 -0.4027 0.4027 0.9153 -94.4965 161.4355)" class="st2" width="12.5" height="3.9"/>
										
											<rect x="328.7" y="299.6" transform="matrix(0.9153 -0.4027 0.4027 0.9153 -93.0918 160.4377)" class="st2" width="12.5" height="3.9"/>
										
											<rect x="327" y="295.8" transform="matrix(0.9153 -0.4027 0.4027 0.9153 -91.6944 159.4334)" class="st2" width="12.5" height="3.9"/>
										
											<rect x="325.3" y="291.9" transform="matrix(0.9153 -0.4027 0.4027 0.9153 -90.2936 158.4267)" class="st2" width="12.5" height="3.9"/>
										
											<rect x="321.5" y="316.5" transform="matrix(0.9153 -0.4027 0.4027 0.9153 -100.5052 158.9733)" class="st2" width="12.5" height="3.9"/>
										
											<rect x="319.8" y="312.7" transform="matrix(0.9153 -0.4027 0.4027 0.9153 -99.1037 157.9682)" class="st2" width="12.5" height="3.9"/>
										
											<rect x="318.1" y="308.8" transform="matrix(0.9153 -0.4027 0.4027 0.9153 -97.7029 156.9614)" class="st2" width="12.5" height="3.9"/>
										
											<rect x="316.5" y="305" transform="matrix(0.9153 -0.4027 0.4027 0.9153 -96.3031 155.9604)" class="st2" width="12.5" height="3.9"/>
										
											<rect x="314.8" y="301.2" transform="matrix(0.9153 -0.4027 0.4027 0.9153 -94.9016 154.9553)" class="st2" width="12.5" height="3.9"/>
										
											<rect x="313.1" y="297.3" transform="matrix(0.9153 -0.4027 0.4027 0.9153 -93.5009 153.9485)" class="st2" width="12.5" height="3.9"/>
										
											<rect x="309.3" y="321.9" transform="matrix(0.9153 -0.4027 0.4027 0.9153 -103.7124 154.4952)" class="st2" width="12.5" height="3.9"/>
										
											<rect x="307.6" y="318.1" transform="matrix(0.9153 -0.4027 0.4027 0.9153 -102.3116 153.4885)" class="st2" width="12.5" height="3.9"/>
										
											<rect x="305.9" y="314.2" transform="matrix(0.9153 -0.4027 0.4027 0.9153 -100.9102 152.4833)" class="st2" width="12.5" height="3.9"/>
										
											<rect x="304.2" y="310.4" transform="matrix(0.9153 -0.4027 0.4027 0.9153 -99.5104 151.4823)" class="st2" width="12.5" height="3.9"/>
										
											<rect x="302.5" y="306.6" transform="matrix(0.9153 -0.4027 0.4027 0.9153 -98.1129 150.478)" class="st2" width="12.5" height="3.9"/>
										
											<rect x="300.8" y="302.7" transform="matrix(0.9153 -0.4027 0.4027 0.9153 -96.7081 149.4704)" class="st2" width="12.5" height="3.9"/>
										
											<rect x="297" y="327.3" transform="matrix(0.9153 -0.4027 0.4027 0.9153 -106.9237 150.0179)" class="st2" width="12.5" height="3.9"/>
										
											<rect x="295.3" y="323.4" transform="matrix(0.9153 -0.4027 0.4027 0.9153 -105.5189 149.0104)" class="st2" width="12.5" height="3.9"/>
										
											<rect x="293.6" y="319.6" transform="matrix(0.9153 -0.4027 0.4027 0.9153 -104.1214 148.006)" class="st2" width="12.5" height="3.9"/>
										
											<rect x="292" y="315.8" transform="matrix(0.9153 -0.4027 0.4027 0.9153 -102.7176 147.0042)" class="st2" width="12.5" height="3.9"/>
										
											<rect x="290.3" y="311.9" transform="matrix(0.9153 -0.4027 0.4027 0.9153 -101.3168 145.9975)" class="st2" width="12.5" height="3.9"/>
										
											<rect x="288.6" y="308.1" transform="matrix(0.9153 -0.4027 0.4027 0.9153 -99.917 144.9965)" class="st2" width="12.5" height="3.9"/>
										
											<rect x="284.8" y="332.7" transform="matrix(0.9153 -0.4027 0.4027 0.9153 -110.131 145.5398)" class="st2" width="12.5" height="3.9"/>
										
											<rect x="283.1" y="328.8" transform="matrix(0.9153 -0.4027 0.4027 0.9153 -108.7261 144.5322)" class="st2" width="12.5" height="3.9"/>
										
											<rect x="281.4" y="325" transform="matrix(0.9153 -0.4027 0.4027 0.9153 -107.3263 143.5312)" class="st2" width="12.5" height="3.9"/>
										
											<rect x="279.7" y="321.2" transform="matrix(0.9153 -0.4027 0.4027 0.9153 -105.9289 142.5269)" class="st2" width="12.5" height="3.9"/>
										
											<rect x="278" y="317.3" transform="matrix(0.9153 -0.4027 0.4027 0.9153 -104.5241 141.5193)" class="st2" width="12.5" height="3.9"/>
										
											<rect x="276.3" y="313.5" transform="matrix(0.9153 -0.4027 0.4027 0.9153 -103.1234 140.5224)" class="st2" width="12.5" height="3.9"/>
										
											<rect x="272.5" y="338.1" transform="matrix(0.9153 -0.4027 0.4027 0.9153 -113.3382 141.0617)" class="st2" width="12.5" height="3.9"/>
										
											<rect x="270.8" y="334.2" transform="matrix(0.9153 -0.4027 0.4027 0.9153 -111.9374 140.0549)" class="st2" width="12.5" height="3.9"/>
										
											<rect x="269.1" y="330.4" transform="matrix(0.9153 -0.4027 0.4027 0.9153 -110.5336 139.0531)" class="st2" width="12.5" height="3.9"/>
										
											<rect x="267.5" y="326.6" transform="matrix(0.9153 -0.4027 0.4027 0.9153 -109.1353 138.0528)" class="st2" width="12.5" height="3.9"/>
										
											<rect x="265.8" y="322.7" transform="matrix(0.9153 -0.4027 0.4027 0.9153 -107.7345 137.0461)" class="st2" width="12.5" height="3.9"/>
										
											<rect x="264.1" y="318.9" transform="matrix(0.9153 -0.4027 0.4027 0.9153 -106.3306 136.0443)" class="st2" width="12.5" height="3.9"/>
									</g>
								</g>
							</g>
							<g class="st1">
								<g>
									<g>
										
											<rect x="464.1" y="253.8" transform="matrix(0.9153 -0.4027 0.4027 0.9153 -63.1695 211.0698)" class="st2" width="12.5" height="3.9"/>
										
											<rect x="462.4" y="249.9" transform="matrix(0.9153 -0.4027 0.4027 0.9153 -61.7696 210.0688)" class="st2" width="12.5" height="3.9"/>
										
											<rect x="460.7" y="246.1" transform="matrix(0.9153 -0.4027 0.4027 0.9153 -60.3682 209.0636)" class="st2" width="12.5" height="3.9"/>
										
											<rect x="459" y="242.3" transform="matrix(0.9153 -0.4027 0.4027 0.9153 -58.9674 208.0569)" class="st2" width="12.5" height="3.9"/>
										
											<rect x="457.3" y="238.4" transform="matrix(0.9153 -0.4027 0.4027 0.9153 -57.5676 207.0559)" class="st2" width="12.5" height="3.9"/>
										
											<rect x="455.6" y="234.6" transform="matrix(0.9153 -0.4027 0.4027 0.9153 -56.1653 206.0547)" class="st2" width="12.5" height="3.9"/>
										
											<rect x="451.8" y="259.2" transform="matrix(0.9153 -0.4027 0.4027 0.9153 -66.3784 206.5958)" class="st2" width="12.5" height="3.9"/>
										
											<rect x="450.1" y="255.3" transform="matrix(0.9153 -0.4027 0.4027 0.9153 -64.9769 205.5907)" class="st2" width="12.5" height="3.9"/>
										
											<rect x="448.4" y="251.5" transform="matrix(0.9153 -0.4027 0.4027 0.9153 -63.5761 204.5839)" class="st2" width="12.5" height="3.9"/>
										
											<rect x="446.8" y="247.7" transform="matrix(0.9153 -0.4027 0.4027 0.9153 -62.1714 203.5861)" class="st2" width="12.5" height="3.9"/>
										
											<rect x="445.1" y="243.8" transform="matrix(0.9153 -0.4027 0.4027 0.9153 -60.774 202.5818)" class="st2" width="12.5" height="3.9"/>
										
											<rect x="443.4" y="240" transform="matrix(0.9153 -0.4027 0.4027 0.9153 -59.3765 201.5775)" class="st2" width="12.5" height="3.9"/>
										
											<rect x="439.6" y="264.6" transform="matrix(0.9153 -0.4027 0.4027 0.9153 -69.5848 202.1217)" class="st2" width="12.5" height="3.9"/>
										
											<rect x="437.9" y="260.7" transform="matrix(0.9153 -0.4027 0.4027 0.9153 -68.1833 201.1166)" class="st2" width="12.5" height="3.9"/>
										
											<rect x="436.2" y="256.9" transform="matrix(0.9153 -0.4027 0.4027 0.9153 -66.7825 200.1098)" class="st2" width="12.5" height="3.9"/>
										
											<rect x="434.5" y="253.1" transform="matrix(0.9153 -0.4027 0.4027 0.9153 -65.3827 199.1088)" class="st2" width="12.5" height="3.9"/>
										
											<rect x="432.8" y="249.2" transform="matrix(0.9153 -0.4027 0.4027 0.9153 -63.9812 198.1037)" class="st2" width="12.5" height="3.9"/>
										
											<rect x="431.1" y="245.4" transform="matrix(0.9153 -0.4027 0.4027 0.9153 -62.5804 197.0969)" class="st2" width="12.5" height="3.9"/>
										
											<rect x="427.3" y="269.9" transform="matrix(0.9153 -0.4027 0.4027 0.9153 -72.792 197.6436)" class="st2" width="12.5" height="3.9"/>
										
											<rect x="425.6" y="266.1" transform="matrix(0.9153 -0.4027 0.4027 0.9153 -71.3946 196.6393)" class="st2" width="12.5" height="3.9"/>
										
											<rect x="424" y="262.3" transform="matrix(0.9153 -0.4027 0.4027 0.9153 -69.9898 195.6317)" class="st2" width="12.5" height="3.9"/>
										
											<rect x="422.3" y="258.4" transform="matrix(0.9153 -0.4027 0.4027 0.9153 -68.5899 194.6307)" class="st2" width="12.5" height="3.9"/>
										
											<rect x="420.6" y="254.6" transform="matrix(0.9153 -0.4027 0.4027 0.9153 -67.1925 193.6264)" class="st2" width="12.5" height="3.9"/>
										
											<rect x="418.9" y="250.8" transform="matrix(0.9153 -0.4027 0.4027 0.9153 -65.7877 192.6188)" class="st2" width="12.5" height="3.9"/>
										
											<rect x="415.1" y="275.3" transform="matrix(0.9153 -0.4027 0.4027 0.9153 -75.9993 193.1655)" class="st2" width="12.5" height="3.9"/>
										
											<rect x="413.4" y="271.5" transform="matrix(0.9153 -0.4027 0.4027 0.9153 -74.6018 192.1612)" class="st2" width="12.5" height="3.9"/>
										
											<rect x="411.7" y="267.7" transform="matrix(0.9153 -0.4027 0.4027 0.9153 -73.201 191.1544)" class="st2" width="12.5" height="3.9"/>
										
											<rect x="410" y="263.8" transform="matrix(0.9153 -0.4027 0.4027 0.9153 -71.7972 190.1526)" class="st2" width="12.5" height="3.9"/>
										
											<rect x="408.3" y="260" transform="matrix(0.9153 -0.4027 0.4027 0.9153 -70.3998 189.1483)" class="st2" width="12.5" height="3.9"/>
										
											<rect x="406.6" y="256.2" transform="matrix(0.9153 -0.4027 0.4027 0.9153 -68.999 188.1415)" class="st2" width="12.5" height="3.9"/>
										
											<rect x="402.8" y="280.7" transform="matrix(0.9153 -0.4027 0.4027 0.9153 -79.2105 188.6882)" class="st2" width="12.5" height="3.9"/>
										
											<rect x="401.1" y="276.9" transform="matrix(0.9153 -0.4027 0.4027 0.9153 -77.8091 187.683)" class="st2" width="12.5" height="3.9"/>
										
											<rect x="399.5" y="273" transform="matrix(0.9153 -0.4027 0.4027 0.9153 -76.4059 186.6796)" class="st2" width="12.5" height="3.9"/>
										
											<rect x="397.8" y="269.2" transform="matrix(0.9153 -0.4027 0.4027 0.9153 -75.0085 185.6753)" class="st2" width="12.5" height="3.9"/>
										
											<rect x="396.1" y="265.4" transform="matrix(0.9153 -0.4027 0.4027 0.9153 -73.607 184.6701)" class="st2" width="12.5" height="3.9"/>
										
											<rect x="394.4" y="261.6" transform="matrix(0.9153 -0.4027 0.4027 0.9153 -72.203 183.6708)" class="st2" width="12.5" height="3.9"/>
										
											<rect x="390.6" y="286.1" transform="matrix(0.9153 -0.4027 0.4027 0.9153 -82.4178 184.2101)" class="st2" width="12.5" height="3.9"/>
										
											<rect x="388.9" y="282.3" transform="matrix(0.9153 -0.4027 0.4027 0.9153 -81.0204 183.2058)" class="st2" width="12.5" height="3.9"/>
										
											<rect x="387.2" y="278.4" transform="matrix(0.9153 -0.4027 0.4027 0.9153 -79.6132 182.2015)" class="st2" width="12.5" height="3.9"/>
										
											<rect x="385.5" y="274.6" transform="matrix(0.9153 -0.4027 0.4027 0.9153 -78.2149 181.2012)" class="st2" width="12.5" height="3.9"/>
										
											<rect x="383.8" y="270.8" transform="matrix(0.9153 -0.4027 0.4027 0.9153 -76.8174 180.1969)" class="st2" width="12.5" height="3.9"/>
										
											<rect x="382.2" y="266.9" transform="matrix(0.9153 -0.4027 0.4027 0.9153 -75.4102 179.1927)" class="st2" width="12.5" height="3.9"/>
										
											<rect x="378.3" y="291.5" transform="matrix(0.9153 -0.4027 0.4027 0.9153 -85.6242 179.736)" class="st2" width="12.5" height="3.9"/>
										
											<rect x="376.6" y="287.7" transform="matrix(0.9153 -0.4027 0.4027 0.9153 -84.2268 178.7317)" class="st2" width="12.5" height="3.9"/>
										
											<rect x="375" y="283.8" transform="matrix(0.9153 -0.4027 0.4027 0.9153 -82.8236 177.7283)" class="st2" width="12.5" height="3.9"/>
										
											<rect x="373.3" y="280" transform="matrix(0.9153 -0.4027 0.4027 0.9153 -81.4221 176.7231)" class="st2" width="12.5" height="3.9"/>
										
											<rect x="371.6" y="276.2" transform="matrix(0.9153 -0.4027 0.4027 0.9153 -80.0247 175.7188)" class="st2" width="12.5" height="3.9"/>
										
											<rect x="369.9" y="272.3" transform="matrix(0.9153 -0.4027 0.4027 0.9153 -78.6175 174.7145)" class="st2" width="12.5" height="3.9"/>
									</g>
								</g>
							</g>
						</g>
					</g>
				</g>
				<g class="st3">
					<g>
						<g>
							<path class="st0" d="M239.9,353.4l-0.1-1.4c0.7,0,1.3-0.2,2-0.3c0-0.1,0-1-0.1-1.1s-0.8-0.3-2.9-0.2l-4.1,0.2l0.1,1.7
								l0.1,1.4v0.1l5-0.2L239.9,353.4z"/>
							<path class="st0" d="M228.3,351.7l6-0.3v-0.7l-6.6,0.3"/>
							<path class="st0" d="M248.3,350.2c-2,0.1-6,0.3-6,0.3v0.7l6.6-0.3"/>
							<path class="st0" d="M511.8,344c0-0.2-0.4-9.7-0.4-10s0-0.2-3-0.1s-36.9,1-123.5,4.8s-132.4,6.5-137.4,6.8
								c-2.6,0.2-2,0.3-2,0.6s0.4,9,0.4,9.2s0,0.2,3,0.1s74.7-2.5,133.4-5.1s122.9-5.8,126.4-6S511.8,344,511.8,344"/>
							<g class="st1">
								<g>
									<g>
										
											<rect x="366.9" y="348.3" transform="matrix(0.999 -4.361939e-02 4.361939e-02 0.999 -14.8695 16.6066)" class="st2" width="12.5" height="1.5"/>
										
											<rect x="366.8" y="346.7" transform="matrix(0.999 -4.361939e-02 4.361939e-02 0.999 -14.8 16.602)" class="st2" width="12.5" height="1.5"/>
										
											<rect x="366.7" y="345.1" transform="matrix(0.999 -4.361939e-02 4.361939e-02 0.999 -14.7305 16.5975)" class="st2" width="12.5" height="1.5"/>
										
											<rect x="366.7" y="343.5" transform="matrix(0.999 -4.361939e-02 4.361939e-02 0.999 -14.6605 16.5929)" class="st2" width="12.5" height="1.5"/>
										
											<rect x="366.6" y="341.9" transform="matrix(0.999 -4.361939e-02 4.361939e-02 0.999 -14.591 16.5884)" class="st2" width="12.5" height="1.5"/>
										
											<rect x="366.5" y="340.3" transform="matrix(0.999 -4.361939e-02 4.361939e-02 0.999 -14.5215 16.5838)" class="st2" width="12.5" height="1.5"/>
										
											<rect x="353.5" y="348.9" transform="matrix(0.999 -4.361939e-02 4.361939e-02 0.999 -14.9077 16.0239)" class="st2" width="12.5" height="1.5"/>
										
											<rect x="353.4" y="347.3" transform="matrix(0.999 -4.361939e-02 4.361939e-02 0.999 -14.8381 16.0193)" class="st2" width="12.5" height="1.5"/>
										
											<rect x="353.4" y="345.7" transform="matrix(0.999 -4.361939e-02 4.361939e-02 0.999 -14.7682 16.0148)" class="st2" width="12.5" height="1.5"/>
										
											<rect x="353.3" y="344.1" transform="matrix(0.999 -4.361939e-02 4.361939e-02 0.999 -14.6987 16.0102)" class="st2" width="12.5" height="1.5"/>
										
											<rect x="353.2" y="342.5" transform="matrix(0.999 -4.361939e-02 4.361939e-02 0.999 -14.6291 16.0057)" class="st2" width="12.5" height="1.5"/>
										
											<rect x="353.2" y="340.9" transform="matrix(0.999 -4.361939e-02 4.361939e-02 0.999 -14.5596 16.0011)" class="st2" width="12.5" height="1.5"/>
										
											<rect x="340.1" y="349.4" transform="matrix(0.999 -4.361939e-02 4.361939e-02 0.999 -14.9458 15.4412)" class="st2" width="12.5" height="1.5"/>
										
											<rect x="340.1" y="347.9" transform="matrix(0.999 -4.361939e-02 4.361939e-02 0.999 -14.8763 15.4366)" class="st2" width="12.5" height="1.5"/>
										
											<rect x="340" y="346.3" transform="matrix(0.999 -4.361939e-02 4.361939e-02 0.999 -14.8068 15.4321)" class="st2" width="12.5" height="1.5"/>
										
											<rect x="339.9" y="344.7" transform="matrix(0.999 -4.361939e-02 4.361939e-02 0.999 -14.7372 15.4275)" class="st2" width="12.5" height="1.5"/>
										
											<rect x="339.8" y="343.1" transform="matrix(0.999 -4.361939e-02 4.361939e-02 0.999 -14.6673 15.4229)" class="st2" width="12.5" height="1.5"/>
										
											<rect x="339.8" y="341.5" transform="matrix(0.999 -4.361939e-02 4.361939e-02 0.999 -14.5978 15.4184)" class="st2" width="12.5" height="1.5"/>
										
											<rect x="326.8" y="350" transform="matrix(0.999 -4.361939e-02 4.361939e-02 0.999 -14.984 14.8584)" class="st2" width="12.5" height="1.5"/>
										
											<rect x="326.7" y="348.4" transform="matrix(0.999 -4.361939e-02 4.361939e-02 0.999 -14.9144 14.8539)" class="st2" width="12.5" height="1.5"/>
										
											<rect x="326.6" y="346.8" transform="matrix(0.999 -4.361939e-02 4.361939e-02 0.999 -14.8449 14.8493)" class="st2" width="12.5" height="1.5"/>
										
											<rect x="326.5" y="345.2" transform="matrix(0.999 -4.361939e-02 4.361939e-02 0.999 -14.7754 14.8448)" class="st2" width="12.5" height="1.5"/>
										
											<rect x="326.5" y="343.6" transform="matrix(0.999 -4.361939e-02 4.361939e-02 0.999 -14.7058 14.8407)" class="st2" width="12.5" height="1.5"/>
										
											<rect x="326.4" y="342.1" transform="matrix(0.999 -4.361939e-02 4.361939e-02 0.999 -14.6363 14.8361)" class="st2" width="12.5" height="1.5"/>
										
											<rect x="313.4" y="350.6" transform="matrix(0.999 -4.361939e-02 4.361939e-02 0.999 -15.0225 14.2762)" class="st2" width="12.5" height="1.5"/>
										
											<rect x="313.3" y="349" transform="matrix(0.999 -4.361939e-02 4.361939e-02 0.999 -14.9526 14.2716)" class="st2" width="12.5" height="1.5"/>
										
											<rect x="313.3" y="347.4" transform="matrix(0.999 -4.361939e-02 4.361939e-02 0.999 -14.883 14.2671)" class="st2" width="12.5" height="1.5"/>
										
											<rect x="313.2" y="345.8" transform="matrix(0.999 -4.361939e-02 4.361939e-02 0.999 -14.8135 14.2629)" class="st2" width="12.5" height="1.5"/>
										
											<rect x="313.1" y="344.2" transform="matrix(0.999 -4.361939e-02 4.361939e-02 0.999 -14.744 14.2579)" class="st2" width="12.5" height="1.5"/>
										
											<rect x="313" y="342.6" transform="matrix(0.999 -4.361939e-02 4.361939e-02 0.999 -14.674 14.2534)" class="st2" width="12.5" height="1.5"/>
										
											<rect x="300" y="351.2" transform="matrix(0.999 -4.361939e-02 4.361939e-02 0.999 -15.0602 13.6934)" class="st2" width="12.5" height="1.5"/>
										
											<rect x="300" y="349.6" transform="matrix(0.999 -4.361939e-02 4.361939e-02 0.999 -14.9907 13.6893)" class="st2" width="12.5" height="1.5"/>
										
											<rect x="299.9" y="348" transform="matrix(0.999 -4.361939e-02 4.361939e-02 0.999 -14.9216 13.6848)" class="st2" width="12.5" height="1.5"/>
										
											<rect x="299.8" y="346.4" transform="matrix(0.999 -4.361939e-02 4.361939e-02 0.999 -14.8516 13.6802)" class="st2" width="12.5" height="1.5"/>
										
											<rect x="299.8" y="344.8" transform="matrix(0.999 -4.361939e-02 4.361939e-02 0.999 -14.7821 13.6757)" class="st2" width="12.5" height="1.5"/>
										
											<rect x="299.7" y="343.2" transform="matrix(0.999 -4.361939e-02 4.361939e-02 0.999 -14.7126 13.6711)" class="st2" width="12.5" height="1.5"/>
										
											<rect x="286.7" y="351.8" transform="matrix(0.999 -4.361939e-02 4.361939e-02 0.999 -15.0988 13.1112)" class="st2" width="12.5" height="1.5"/>
										
											<rect x="286.6" y="350.2" transform="matrix(0.999 -4.361939e-02 4.361939e-02 0.999 -15.0293 13.1066)" class="st2" width="12.5" height="1.5"/>
										
											<rect x="286.5" y="348.6" transform="matrix(0.999 -4.361939e-02 4.361939e-02 0.999 -14.9593 13.1021)" class="st2" width="12.5" height="1.5"/>
										
											<rect x="286.5" y="347" transform="matrix(0.999 -4.361939e-02 4.361939e-02 0.999 -14.8898 13.0975)" class="st2" width="12.5" height="1.5"/>
										
											<rect x="286.4" y="345.4" transform="matrix(0.999 -4.361939e-02 4.361939e-02 0.999 -14.8202 13.093)" class="st2" width="12.5" height="1.5"/>
										
											<rect x="286.3" y="343.8" transform="matrix(0.999 -4.361939e-02 4.361939e-02 0.999 -14.7507 13.0884)" class="st2" width="12.5" height="1.5"/>
										
											<rect x="273.3" y="352.4" transform="matrix(0.999 -4.361939e-02 4.361939e-02 0.999 -15.1369 12.5285)" class="st2" width="12.5" height="1.5"/>
										
											<rect x="273.2" y="350.8" transform="matrix(0.999 -4.361939e-02 4.361939e-02 0.999 -15.0674 12.5239)" class="st2" width="12.5" height="1.5"/>
										
											<rect x="273.1" y="349.2" transform="matrix(0.999 -4.361939e-02 4.361939e-02 0.999 -14.9974 12.5193)" class="st2" width="12.5" height="1.5"/>
										
											<rect x="273.1" y="347.6" transform="matrix(0.999 -4.361939e-02 4.361939e-02 0.999 -14.9283 12.5148)" class="st2" width="12.5" height="1.5"/>
										
											<rect x="273" y="346" transform="matrix(0.999 -4.361939e-02 4.361939e-02 0.999 -14.8584 12.5102)" class="st2" width="12.5" height="1.5"/>
										
											<rect x="272.9" y="344.4" transform="matrix(0.999 -4.361939e-02 4.361939e-02 0.999 -14.7889 12.5057)" class="st2" width="12.5" height="1.5"/>
									</g>
								</g>
							</g>
							<g class="st1">
								<g>
									<g>
										
											<rect x="482.4" y="343.2" transform="matrix(0.999 -4.361939e-02 4.361939e-02 0.999 -14.5396 21.6394)" class="st2" width="12.5" height="1.5"/>
										
											<rect x="482.3" y="341.6" transform="matrix(0.999 -4.361939e-02 4.361939e-02 0.999 -14.4697 21.6348)" class="st2" width="12.5" height="1.5"/>
										
											<rect x="482.2" y="340.1" transform="matrix(0.999 -4.361939e-02 4.361939e-02 0.999 -14.4006 21.6303)" class="st2" width="12.5" height="1.5"/>
										
											<rect x="482.2" y="338.4" transform="matrix(0.999 -4.361939e-02 4.361939e-02 0.999 -14.3306 21.6257)" class="st2" width="12.5" height="1.5"/>
										
											<rect x="482.1" y="336.8" transform="matrix(0.999 -4.361939e-02 4.361939e-02 0.999 -14.2611 21.6212)" class="st2" width="12.5" height="1.5"/>
										
											<rect x="482" y="335.2" transform="matrix(0.999 -4.361939e-02 4.361939e-02 0.999 -14.1912 21.6166)" class="st2" width="12.5" height="1.5"/>
										
											<rect x="469" y="343.8" transform="matrix(0.999 -4.361939e-02 4.361939e-02 0.999 -14.5774 21.0567)" class="st2" width="12.5" height="1.5"/>
										
											<rect x="468.9" y="342.2" transform="matrix(0.999 -4.361939e-02 4.361939e-02 0.999 -14.5083 21.0521)" class="st2" width="12.5" height="1.5"/>
										
											<rect x="468.8" y="340.6" transform="matrix(0.999 -4.361939e-02 4.361939e-02 0.999 -14.4383 21.0476)" class="st2" width="12.5" height="1.5"/>
										
											<rect x="468.8" y="339" transform="matrix(0.999 -4.361939e-02 4.361939e-02 0.999 -14.3688 21.043)" class="st2" width="12.5" height="1.5"/>
										
											<rect x="468.7" y="337.4" transform="matrix(0.999 -4.361939e-02 4.361939e-02 0.999 -14.2992 21.0389)" class="st2" width="12.5" height="1.5"/>
										
											<rect x="468.7" y="335.8" transform="matrix(0.999 -4.361939e-02 4.361939e-02 0.999 -14.2297 21.0343)" class="st2" width="12.5" height="1.5"/>
										
											<rect x="455.6" y="344.4" transform="matrix(0.999 -4.361939e-02 4.361939e-02 0.999 -14.6159 20.474)" class="st2" width="12.5" height="1.5"/>
										
											<rect x="455.5" y="342.8" transform="matrix(0.999 -4.361939e-02 4.361939e-02 0.999 -14.5464 20.4694)" class="st2" width="12.5" height="1.5"/>
										
											<rect x="455.5" y="341.2" transform="matrix(0.999 -4.361939e-02 4.361939e-02 0.999 -14.4764 20.4648)" class="st2" width="12.5" height="1.5"/>
										
											<rect x="455.4" y="339.6" transform="matrix(0.999 -4.361939e-02 4.361939e-02 0.999 -14.4073 20.4608)" class="st2" width="12.5" height="1.5"/>
										
											<rect x="455.3" y="338" transform="matrix(0.999 -4.361939e-02 4.361939e-02 0.999 -14.3374 20.4562)" class="st2" width="12.5" height="1.5"/>
										
											<rect x="455.3" y="336.4" transform="matrix(0.999 -4.361939e-02 4.361939e-02 0.999 -14.2678 20.4516)" class="st2" width="12.5" height="1.5"/>
										
											<rect x="442.2" y="345" transform="matrix(0.999 -4.361939e-02 4.361939e-02 0.999 -14.6541 19.8913)" class="st2" width="12.5" height="1.5"/>
										
											<rect x="442.2" y="343.4" transform="matrix(0.999 -4.361939e-02 4.361939e-02 0.999 -14.5841 19.8871)" class="st2" width="12.5" height="1.5"/>
										
											<rect x="442.1" y="341.8" transform="matrix(0.999 -4.361939e-02 4.361939e-02 0.999 -14.515 19.8826)" class="st2" width="12.5" height="1.5"/>
										
											<rect x="442" y="340.2" transform="matrix(0.999 -4.361939e-02 4.361939e-02 0.999 -14.445 19.878)" class="st2" width="12.5" height="1.5"/>
										
											<rect x="442" y="338.6" transform="matrix(0.999 -4.361939e-02 4.361939e-02 0.999 -14.3755 19.8735)" class="st2" width="12.5" height="1.5"/>
										
											<rect x="441.9" y="337" transform="matrix(0.999 -4.361939e-02 4.361939e-02 0.999 -14.3064 19.8689)" class="st2" width="12.5" height="1.5"/>
										
											<rect x="428.9" y="345.6" transform="matrix(0.999 -4.361939e-02 4.361939e-02 0.999 -14.6926 19.309)" class="st2" width="12.5" height="1.5"/>
										
											<rect x="428.8" y="344" transform="matrix(0.999 -4.361939e-02 4.361939e-02 0.999 -14.6226 19.3049)" class="st2" width="12.5" height="1.5"/>
										
											<rect x="428.8" y="342.4" transform="matrix(0.999 -4.361939e-02 4.361939e-02 0.999 -14.5531 19.3003)" class="st2" width="12.5" height="1.5"/>
										
											<rect x="428.7" y="340.8" transform="matrix(0.999 -4.361939e-02 4.361939e-02 0.999 -14.4832 19.2953)" class="st2" width="12.5" height="1.5"/>
										
											<rect x="428.6" y="339.2" transform="matrix(0.999 -4.361939e-02 4.361939e-02 0.999 -14.4141 19.2908)" class="st2" width="12.5" height="1.5"/>
										
											<rect x="428.5" y="337.6" transform="matrix(0.999 -4.361939e-02 4.361939e-02 0.999 -14.3441 19.2862)" class="st2" width="12.5" height="1.5"/>
										
											<rect x="415.5" y="346.2" transform="matrix(0.999 -4.361939e-02 4.361939e-02 0.999 -14.7303 18.7267)" class="st2" width="12.5" height="1.5"/>
										
											<rect x="415.5" y="344.6" transform="matrix(0.999 -4.361939e-02 4.361939e-02 0.999 -14.6608 18.7221)" class="st2" width="12.5" height="1.5"/>
										
											<rect x="415.4" y="343" transform="matrix(0.999 -4.361939e-02 4.361939e-02 0.999 -14.5908 18.7176)" class="st2" width="12.5" height="1.5"/>
										
											<rect x="415.3" y="341.4" transform="matrix(0.999 -4.361939e-02 4.361939e-02 0.999 -14.5217 18.713)" class="st2" width="12.5" height="1.5"/>
										
											<rect x="415.2" y="339.8" transform="matrix(0.999 -4.361939e-02 4.361939e-02 0.999 -14.4522 18.7085)" class="st2" width="12.5" height="1.5"/>
										
											<rect x="415.2" y="338.2" transform="matrix(0.999 -4.361939e-02 4.361939e-02 0.999 -14.3823 18.7039)" class="st2" width="12.5" height="1.5"/>
										
											<rect x="402.1" y="346.7" transform="matrix(0.999 -4.361939e-02 4.361939e-02 0.999 -14.7685 18.144)" class="st2" width="12.5" height="1.5"/>
										
											<rect x="402.1" y="345.2" transform="matrix(0.999 -4.361939e-02 4.361939e-02 0.999 -14.6994 18.1394)" class="st2" width="12.5" height="1.5"/>
										
											<rect x="402" y="343.5" transform="matrix(0.999 -4.361939e-02 4.361939e-02 0.999 -14.6294 18.1349)" class="st2" width="12.5" height="1.5"/>
										
											<rect x="401.9" y="342" transform="matrix(0.999 -4.361939e-02 4.361939e-02 0.999 -14.5599 18.1303)" class="st2" width="12.5" height="1.5"/>
										
											<rect x="401.9" y="340.3" transform="matrix(0.999 -4.361939e-02 4.361939e-02 0.999 -14.4899 18.1257)" class="st2" width="12.5" height="1.5"/>
										
											<rect x="401.8" y="338.8" transform="matrix(0.999 -4.361939e-02 4.361939e-02 0.999 -14.4208 18.1212)" class="st2" width="12.5" height="1.5"/>
										
											<rect x="388.8" y="347.3" transform="matrix(0.999 -4.361939e-02 4.361939e-02 0.999 -14.807 17.5613)" class="st2" width="12.5" height="1.5"/>
										
											<rect x="388.7" y="345.7" transform="matrix(0.999 -4.361939e-02 4.361939e-02 0.999 -14.7371 17.5567)" class="st2" width="12.5" height="1.5"/>
										
											<rect x="388.6" y="344.1" transform="matrix(0.999 -4.361939e-02 4.361939e-02 0.999 -14.6675 17.5522)" class="st2" width="12.5" height="1.5"/>
										
											<rect x="388.6" y="342.5" transform="matrix(0.999 -4.361939e-02 4.361939e-02 0.999 -14.598 17.5476)" class="st2" width="12.5" height="1.5"/>
										
											<rect x="388.5" y="340.9" transform="matrix(0.999 -4.361939e-02 4.361939e-02 0.999 -14.5285 17.543)" class="st2" width="12.5" height="1.5"/>
										
											<rect x="388.4" y="339.3" transform="matrix(0.999 -4.361939e-02 4.361939e-02 0.999 -14.459 17.5385)" class="st2" width="12.5" height="1.5"/>
									</g>
								</g>
							</g>
						</g>
					</g>
				</g>
				<g class="st3">
					<g>
						<g>
							<polyline class="st0" points="125.9,511.1 143.3,509 155.2,505.7 160.7,500.2 154.1,504.6 142.2,507.9 121.5,509 							"/>
						</g>
					</g>
				</g>
				<g class="st3">
					<g>
						<g>
							<polyline class="st0" points="125.9,512.2 141.1,515.5 153.1,517.7 160.7,520.9 154.1,516.6 142.2,514.4 121.5,510 							
								"/>
						</g>
					</g>
				</g>
			</g>
		</g>
	</g>
</g>
</svg>
