<?xml version="1.0" encoding="utf-8"?>
<!-- Generator: Adobe Illustrator 24.3.0, SVG Export Plug-In . SVG Version: 6.00 Build 0)  -->
<svg version="1.1" id="Layer_1" xmlns="http://www.w3.org/2000/svg" xmlns:xlink="http://www.w3.org/1999/xlink" x="0px" y="0px"
	 viewBox="0 0 379 325" style="enable-background:new 0 0 379 325;" xml:space="preserve">
<style type="text/css">
	.st0{fill:#0FB0E1;}
	.st1{opacity:0.5;}
	.st2{fill:#FFFFFF;}
	.st3{opacity:0.2;}
</style>
<path class="st0" d="M369,193c1.1-3.9-69.9-7.1-69.9-7.1s-1.1-4.9-4.3-4.9s-103.2-17.6-103.2-17.6s-4.3-31.2-8.6-30.6
	c-4.3,0.5-13.4,0-17.2,0c-3.8,0-11,39.2-13.2,39.2s-92.2,9.1-96.3,9.1c-4,0-20.1,14.5-20.1,14.5v0l-9.1,37.5l75.2,0.1
	c2.1,0,5.4,49.9,9.7,49.9h45.1c4.8,0,47.7-53.9,51.3-53.9h98.7c-0.3,1.2-0.8,2.6-1.3,4.4c-2.9,8.7-4.1,14.5-11,14.5
	c-6.4,0-20.9,1.2-20.9,1.2s30.2,1.1,36.6,1.1c1.7,0.3,0-2.3,4.1-2.3c2.9,0,4.7-1.2,8.7-11.6c1.1-2.9,1.9-5.3,2.6-7.3h25.9
	C351.8,229.3,367.9,196.9,369,193z"/>
<polygon class="st0" points="10.7,170 9.4,173.3 50.2,173.3 48.3,170 "/>
<path class="st0" d="M47.6,174.7H27.2l17.5,1.9l4.5,5.8c0,0,3.9-2.6,6.5-2.6s17.5-2,17.5-2l-20.7-0.6L47.6,174.7z"/>
<g class="st1">
	<g>
		<g>
			<path class="st2" d="M219.1,188.3c-0.2-0.4-0.3-0.8-0.2-1.3c0.1-0.4,0.2-0.8,0.5-1.1c-1.3-1.4-2.7-2.6-4.3-3.5
				c-0.5,0.6-1.3,1-2.1,0.9c-0.1,0-0.3-0.1-0.4-0.1c-1.9,2.7-4.6,4.7-7.7,5.8c-0.5,0.2-1,0.3-1.4,0.5c0,0.1,0,0.1,0,0.2
				c-0.1,1-1,1.8-2,1.8c0,0.1,0,0.2,0,0.3c0.1,6.1,4,11,6.2,13.2c0.4-0.7,1.2-1.1,2-1.1C210.7,197.6,214.1,192.1,219.1,188.3"/>
			<path class="st2" d="M192.4,189.6c2.3,0.2,4.7,0.3,7,0.1c0-0.2,0-0.5,0-0.7c0.2-1.2,1.2-2,2.4-1.8c0.7-2.3,1.9-4.5,3.5-6.3
				c-0.2-0.3-0.4-0.6-0.5-1c-5.4,0.5-10.4,3.5-12.2,4.8c-0.2,0.8-0.4,1.7-0.6,2.5c-0.1,0.8-0.2,1.6-0.2,2.5H192.4"/>
			<path class="st2" d="M209,179.5c0.9,0.2,1.7,0.4,2.6,0.6c0.4-0.8,1.3-1.3,2.2-1.1c0.2,0,0.4,0.1,0.6,0.2c0.5-1.2,0.8-2.4,1.1-3.7
				c-0.5-0.2-0.9-0.5-1.2-1c-1.4,0.9-4.4,2.9-5.6,3.8C208.9,178.6,209,179.1,209,179.5"/>
			<path class="st2" d="M215.9,175.6c-0.3,1.3-0.7,2.6-1.2,3.8c0.6,0.5,0.9,1.2,0.8,2c0,0.2-0.1,0.4-0.1,0.5c1.6,1,3.1,2.2,4.4,3.6
				c1-0.7,2.3-0.5,3,0.5c0,0,0,0,0,0c1.1-0.5,2.3-0.7,3.4-0.5h0.2c-1.1-4.8-4.2-8.9-8.4-11.3C217.7,175.1,216.8,175.6,215.9,175.6"
				/>
			<path class="st2" d="M204.7,179.3c0,0,0-0.1,0-0.1c0.2-1.2,1.3-2,2.4-1.8c0,0,0,0,0,0c0.4,0.1,0.8,0.2,1.1,0.5
				c1.3-0.9,4.4-3,5.8-3.9c-0.1-0.4-0.1-0.9,0.1-1.3c-0.7-0.2-1.5-0.4-2.3-0.5c-8.3-1.2-16.4,3.7-19.1,11.6
				C194.8,182.4,199.5,179.7,204.7,179.3"/>
			<path class="st2" d="M222.1,189.2c-0.4,0.2-0.9,0.3-1.3,0.2c-0.5-0.1-1-0.3-1.3-0.7c-4.9,3.7-8.2,9.1-9.1,15.2
				c1.1,0.3,1.8,1.6,1.4,2.7c0,0.1-0.1,0.3-0.2,0.4c6.2-0.8,11.5-4.8,14-10.6C224.9,193.8,223.7,191.4,222.1,189.2"/>
			<path class="st2" d="M207.5,205.7c0-0.1,0-0.2,0.1-0.3c-2.8-2.6-6.4-7.9-6.5-13.7c0-0.1,0-0.2,0-0.3c-0.7-0.1-1.4-0.6-1.6-1.3
				c-1,0.1-2,0.2-3,0.1c-1.7,0-3.1-0.1-4.1-0.2h-0.6c0.2,8.6,6.6,15.8,15.1,17l1,0.1C207.6,206.8,207.5,206.3,207.5,205.7"/>
			<path class="st2" d="M212.3,182.9c-0.7-0.5-1.1-1.3-0.9-2.1c0-0.1,0-0.2,0.1-0.2c-0.8-0.3-1.6-0.5-2.5-0.6
				c-0.3,1.2-1.5,1.8-2.6,1.6c-0.3-0.1-0.5-0.2-0.7-0.3c-1.5,1.8-2.7,3.8-3.4,6.1c0.7,0.3,1.2,0.9,1.4,1.6c0.4-0.1,0.9-0.3,1.3-0.4
				C207.8,187.4,210.4,185.5,212.3,182.9"/>
			<path class="st2" d="M226.6,186.1c-0.1,0-0.3,0-0.4,0c-1.1-0.2-2.1,0-3.1,0.5c0.1,0.4,0.2,0.7,0.1,1.1c-0.1,0.5-0.3,1-0.7,1.3
				c1.5,2,2.6,4.3,3.4,6.7C227,192.6,227.2,189.3,226.6,186.1"/>
		</g>
	</g>
</g>
<g class="st3">
	<g>
		<g>
			<polygon class="st2" points="152.7,174.1 56.4,183.2 45.4,193.7 152.2,198.1 167.8,178 			"/>
		</g>
	</g>
</g>
</svg>
