<?xml version="1.0" encoding="utf-8"?>
<!-- Generator: Adobe Illustrator 24.3.0, SVG Export Plug-In . SVG Version: 6.00 Build 0)  -->
<svg version="1.1" id="Layer_1" xmlns="http://www.w3.org/2000/svg" xmlns:xlink="http://www.w3.org/1999/xlink" x="0px" y="0px"
	 viewBox="0 0 379 325" style="enable-background:new 0 0 379 325;" xml:space="preserve">
<style type="text/css">
	.st0{fill:#0FB0E1;}
	.st1{opacity:0.5;}
	.st2{fill:#FFFFFF;}
</style>
<g>
	<path class="st0" d="M301.2,204.5c-0.8,0-43.5-1.3-51.1-1.3c-7.6,0-32.9-0.9-32.9-0.9v2.1h-3.8l-0.3,0c-0.4-0.3-3-2.4-4.4-3.8
		c-0.8-0.8-1.7-1.5-2.6-1.7v-2.6h2.1v-1.7c0-0.9-0.4-1.2-1.1-1.2h-4c-0.4,0-0.8,0.8-0.8,0.8h-5.1H197v2.1h8.6v2.5
		c-0.5,0.1-0.9,0.3-1.2,0.9c-1.1,1.8-2.7,4.2-2.7,4.2H80.5c-0.7,1.4-2.4,7.8-3.8,13.3L76.3,52.3H75v171.9c-0.3,1.1-0.4,1.8-0.4,1.8
		s-1.3,5.1-0.9,5.5c0.5,0.4,7.2,0.9,16.5,2.1c4.9,0.7,15.1,1.7,25.3,2.6v3.3h0.8v6.7c-0.8,0.2-1.4,0.5-1.7,0.6
		c-0.2-1.1-1-6.5-2.1-6.5c-1.3,0-2.1,5.3-1.7,6.8c0.2,0.6,0.3,1.3,0.5,1.9l-0.6-1.7c0,0-0.6,8.5,0.8,7.4c0.6-0.4,1-1,1.1-1.7l0-0.1
		c0.2,0.6,0.5,1.2,0.7,1.8c0.8,1.7,0.8-3.4,1.3-5.1c1.5,0.8,3.2,1.3,4.9,1.3c5.7,0,5.7-0.8,6.5-1.3c0.2,0,0.3-0.1,0.4-0.3
		c0.4-0.4,0.4-1,0-1.4c-1.2-1.1-2.5-1.7-4.3-1.9v-0.2v-6.3h1.3V237l-1.8-0.2c7,0.6,13.5,1.2,17.8,1.5c0.3,0,0.7,0,1.1,0.1l-3.6,0
		c0,0,24.5,39.2,26.6,43c2.1,3.8,5.1,4,8.9,4c3.8,0,23.6-0.2,27-0.2c3.4,0,8.9,1.7,10.5-4.2c1.6-5.7,10.8-40.3,11.4-42.2
		c13.1-0.4,27-1,31.2-1.2c6.8-0.4,35-2.1,38-2.5c3-0.4,3.8-0.8,4.2-2.9c0.4-2.2,6.3-24.9,6.8-26.2S302.1,204.5,301.2,204.5z"/>
	<path class="st0" d="M254.8,255.6c-2.1,6.3-3.4,11.8-8,11.4s-15.2,0-15.2,0s21.9,0.8,26.6,0.8c1.3,0.2,0-1.7,3-1.7
		c2.1,0,3.4-0.8,6.3-8.4c3-7.6,6.3-21.5,6.3-21.5l-13.9,0.9C259.9,237,256.9,249.2,254.8,255.6z"/>
	<path class="st0" d="M189.4,191.8h32.5c0.8,0,1.3,0.3,1.7-0.8c0.4-2.1,2.9-21.6,2.9-58.3c0-36.7-2.1-51-2.1-52.3
		c0-1.3,0-1.3-0.8-1.3h-35h0c0,0-0.9-0.2-0.9,1.3c0,1.5-1.7,28.7-1.7,53.6c0,24.9,2.6,55.3,2.6,56.6
		C188.6,191.8,188.6,191.8,189.4,191.8z"/>
</g>
<g class="st1">
	<g>
		<g>
			<rect x="189.6" y="135.3" class="st2" width="5.3" height="5.3"/>
			<rect x="195.2" y="135.3" class="st2" width="5.3" height="5.3"/>
			<rect x="200.8" y="135.3" class="st2" width="5.3" height="5.3"/>
			<rect x="206.4" y="135.3" class="st2" width="5.3" height="5.3"/>
			<rect x="212.1" y="135.3" class="st2" width="5.3" height="5.3"/>
			<rect x="217.7" y="135.3" class="st2" width="5.3" height="5.3"/>
			<rect x="189.6" y="140.9" class="st2" width="5.3" height="5.3"/>
			<rect x="195.2" y="140.9" class="st2" width="5.3" height="5.3"/>
			<rect x="200.8" y="140.9" class="st2" width="5.3" height="5.3"/>
			<rect x="206.4" y="140.9" class="st2" width="5.3" height="5.3"/>
			<rect x="212.1" y="140.9" class="st2" width="5.3" height="5.3"/>
			<rect x="217.7" y="140.9" class="st2" width="5.3" height="5.3"/>
			<rect x="189.6" y="146.6" class="st2" width="5.3" height="5.3"/>
			<rect x="195.2" y="146.6" class="st2" width="5.3" height="5.3"/>
			<rect x="200.8" y="146.6" class="st2" width="5.3" height="5.3"/>
			<rect x="206.4" y="146.6" class="st2" width="5.3" height="5.3"/>
			<rect x="212.1" y="146.6" class="st2" width="5.3" height="5.3"/>
			<rect x="217.7" y="146.6" class="st2" width="5.3" height="5.3"/>
			<rect x="189.6" y="152.3" class="st2" width="5.3" height="5.3"/>
			<rect x="195.2" y="152.3" class="st2" width="5.3" height="5.3"/>
			<rect x="200.8" y="152.3" class="st2" width="5.3" height="5.3"/>
			<rect x="206.4" y="152.3" class="st2" width="5.3" height="5.3"/>
			<rect x="212.1" y="152.3" class="st2" width="5.3" height="5.3"/>
			<rect x="217.7" y="152.3" class="st2" width="5.3" height="5.3"/>
			<rect x="189.6" y="157.9" class="st2" width="5.3" height="5.3"/>
			<rect x="195.2" y="157.9" class="st2" width="5.3" height="5.3"/>
			<rect x="200.8" y="157.9" class="st2" width="5.3" height="5.3"/>
			<rect x="206.4" y="157.9" class="st2" width="5.3" height="5.3"/>
			<rect x="212.1" y="157.9" class="st2" width="5.3" height="5.3"/>
			<rect x="217.7" y="157.9" class="st2" width="5.3" height="5.3"/>
			<rect x="189.6" y="163.6" class="st2" width="5.3" height="5.3"/>
			<rect x="195.2" y="163.6" class="st2" width="5.3" height="5.3"/>
			<rect x="200.8" y="163.6" class="st2" width="5.3" height="5.3"/>
			<rect x="206.4" y="163.6" class="st2" width="5.3" height="5.3"/>
			<rect x="212.1" y="163.6" class="st2" width="5.3" height="5.3"/>
			<rect x="217.7" y="163.6" class="st2" width="5.3" height="5.3"/>
			<rect x="189.6" y="169.3" class="st2" width="5.3" height="5.3"/>
			<rect x="195.2" y="169.3" class="st2" width="5.3" height="5.3"/>
			<rect x="200.8" y="169.3" class="st2" width="5.3" height="5.3"/>
			<rect x="206.4" y="169.3" class="st2" width="5.3" height="5.3"/>
			<rect x="212.1" y="169.3" class="st2" width="5.3" height="5.3"/>
			<rect x="217.7" y="169.3" class="st2" width="5.3" height="5.3"/>
			<rect x="189.6" y="174.9" class="st2" width="5.3" height="5.3"/>
			<rect x="195.2" y="174.9" class="st2" width="5.3" height="5.3"/>
			<rect x="200.8" y="174.9" class="st2" width="5.3" height="5.3"/>
			<rect x="206.4" y="174.9" class="st2" width="5.3" height="5.3"/>
			<rect x="212.1" y="174.9" class="st2" width="5.3" height="5.3"/>
			<rect x="217.7" y="174.9" class="st2" width="5.3" height="5.3"/>
		</g>
	</g>
</g>
<g class="st1">
	<g>
		<g>
			<rect x="189.6" y="86.3" class="st2" width="5.3" height="5.3"/>
			<rect x="195.2" y="86.3" class="st2" width="5.3" height="5.3"/>
			<rect x="200.8" y="86.3" class="st2" width="5.3" height="5.3"/>
			<rect x="206.4" y="86.3" class="st2" width="5.3" height="5.3"/>
			<rect x="212.1" y="86.3" class="st2" width="5.3" height="5.3"/>
			<rect x="217.7" y="86.3" class="st2" width="5.3" height="5.3"/>
			<rect x="189.6" y="92" class="st2" width="5.3" height="5.3"/>
			<rect x="195.2" y="92" class="st2" width="5.3" height="5.3"/>
			<rect x="200.8" y="92" class="st2" width="5.3" height="5.3"/>
			<rect x="206.4" y="92" class="st2" width="5.3" height="5.3"/>
			<rect x="212.1" y="92" class="st2" width="5.3" height="5.3"/>
			<rect x="217.7" y="92" class="st2" width="5.3" height="5.3"/>
			<rect x="189.6" y="97.7" class="st2" width="5.3" height="5.3"/>
			<rect x="195.2" y="97.7" class="st2" width="5.3" height="5.3"/>
			<rect x="200.8" y="97.7" class="st2" width="5.3" height="5.3"/>
			<rect x="206.4" y="97.7" class="st2" width="5.3" height="5.3"/>
			<rect x="212.1" y="97.7" class="st2" width="5.3" height="5.3"/>
			<rect x="217.7" y="97.7" class="st2" width="5.3" height="5.3"/>
			<rect x="189.6" y="103.3" class="st2" width="5.3" height="5.3"/>
			<rect x="195.2" y="103.3" class="st2" width="5.3" height="5.3"/>
			<rect x="200.8" y="103.3" class="st2" width="5.3" height="5.3"/>
			<rect x="206.4" y="103.3" class="st2" width="5.3" height="5.3"/>
			<rect x="212.1" y="103.3" class="st2" width="5.3" height="5.3"/>
			<rect x="217.7" y="103.3" class="st2" width="5.3" height="5.3"/>
			<rect x="189.6" y="109" class="st2" width="5.3" height="5.3"/>
			<rect x="195.2" y="109" class="st2" width="5.3" height="5.3"/>
			<rect x="200.8" y="109" class="st2" width="5.3" height="5.3"/>
			<rect x="206.4" y="109" class="st2" width="5.3" height="5.3"/>
			<rect x="212.1" y="109" class="st2" width="5.3" height="5.3"/>
			<rect x="217.7" y="109" class="st2" width="5.3" height="5.3"/>
			<rect x="189.6" y="114.7" class="st2" width="5.3" height="5.3"/>
			<rect x="195.2" y="114.7" class="st2" width="5.3" height="5.3"/>
			<rect x="200.8" y="114.7" class="st2" width="5.3" height="5.3"/>
			<rect x="206.4" y="114.7" class="st2" width="5.3" height="5.3"/>
			<rect x="212.1" y="114.7" class="st2" width="5.3" height="5.3"/>
			<rect x="217.7" y="114.7" class="st2" width="5.3" height="5.3"/>
			<rect x="189.6" y="120.3" class="st2" width="5.3" height="5.3"/>
			<rect x="195.2" y="120.3" class="st2" width="5.3" height="5.3"/>
			<rect x="200.8" y="120.3" class="st2" width="5.3" height="5.3"/>
			<rect x="206.4" y="120.3" class="st2" width="5.3" height="5.3"/>
			<rect x="212.1" y="120.3" class="st2" width="5.3" height="5.3"/>
			<rect x="217.7" y="120.3" class="st2" width="5.3" height="5.3"/>
			<rect x="189.6" y="126" class="st2" width="5.3" height="5.3"/>
			<rect x="195.2" y="126" class="st2" width="5.3" height="5.3"/>
			<rect x="200.8" y="126" class="st2" width="5.3" height="5.3"/>
			<rect x="206.4" y="126" class="st2" width="5.3" height="5.3"/>
			<rect x="212.1" y="126" class="st2" width="5.3" height="5.3"/>
			<rect x="217.7" y="126" class="st2" width="5.3" height="5.3"/>
		</g>
	</g>
</g>
<g class="st1">
	<g>
		<g>
			<path class="st2" d="M199.3,242.8c-0.3-0.6-0.4-1.3-0.3-2c0.1-0.6,0.4-1.2,0.8-1.7c-1.9-2.1-4.2-3.9-6.6-5.5
				c-0.7,1-1.9,1.5-3.2,1.3c-0.2,0-0.4-0.1-0.6-0.2c-3,4.1-7.1,7.2-11.9,8.9c-0.7,0.3-1.5,0.5-2.2,0.7c0,0.1,0,0.2,0,0.3
				c-0.2,1.5-1.5,2.7-3,2.8v0.4c0.2,9.4,6.1,17,9.6,20.4c0.6-1.1,1.9-1.8,3.1-1.7C186.8,256.6,191.6,248.5,199.3,242.8"/>
			<path class="st2" d="M157.9,244.7c3.6,0.4,7.2,0.4,10.8,0.1c-0.1-0.3-0.1-0.7,0-1.1c0.3-1.8,1.9-3,3.7-2.8
				c1.1-3.6,2.9-6.9,5.4-9.8c-0.4-0.5-0.7-1-0.8-1.6c-8.4,0.7-16.1,5.5-18.9,7.4c-0.4,1.3-0.7,2.6-0.9,3.9c-0.2,1.3-0.3,2.5-0.3,3.8
				L157.9,244.7"/>
			<path class="st2" d="M183.6,229.1c1.4,0.2,2.7,0.6,4,1c0.7-1.2,2-1.9,3.4-1.7c0.3,0,0.6,0.1,0.9,0.2c0.7-1.9,1.3-3.8,1.7-5.7
				c-0.8-0.3-1.5-0.9-1.9-1.6c-2.2,1.4-6.8,4.5-8.7,5.9C183.4,227.7,183.6,228.4,183.6,229.1"/>
			<path class="st2" d="M194.3,223.1c-0.4,2-1,4-1.8,5.9c1,0.7,1.4,1.9,1.3,3.1c0,0.3-0.1,0.5-0.2,0.8c2.5,1.6,4.8,3.5,6.8,5.6
				c1.5-1.1,3.6-0.7,4.6,0.8c1.6-0.8,3.5-1.1,5.3-0.8l0.4,0.1c-1.7-7.4-6.4-13.7-13-17.4C197.1,222.4,195.7,223.2,194.3,223.1"/>
			<path class="st2" d="M176.9,228.8c0-0.1,0-0.2,0-0.2c0.3-1.8,2-3.1,3.8-2.8c0.6,0.1,1.2,0.4,1.7,0.8c2-1.5,6.8-4.6,9-6
				c-0.1-0.4-0.1-0.9-0.1-1.3c0-0.2,0.1-0.5,0.2-0.7c-1.1-0.3-2.3-0.6-3.5-0.8c-12.9-1.9-25.3,5.7-29.6,17.9
				C161.8,233.6,169,229.5,176.9,228.8"/>
			<path class="st2" d="M203.8,244.2c-1.4,0.7-3.1,0.4-4.1-0.8c-7.6,5.7-12.3,13.6-14.1,23.5c1.6,0.5,2.5,2.1,2.3,3.7
				c-0.1,0.4-0.2,0.8-0.4,1.1c9.6-1.2,17.8-7.5,21.6-16.4C208.7,252.8,206.9,248.5,203.8,244.2"/>
			<path class="st2" d="M181.4,269.6c0-0.1,0.1-0.3,0.1-0.4c-4.3-4-9.8-12.1-10-21.2c0-0.1,0-0.3,0-0.4c-1.1-0.2-2.1-0.9-2.5-1.9
				c-1.7,0.2-3.3,0.2-4.7,0.2c-2.6,0-4.8-0.2-6.3-0.3l-0.9-0.1c0.4,13.2,10.2,24.3,23.3,26.2c0.5,0.1,1,0.1,1.6,0.2
				C181.5,271.1,181.3,270.4,181.4,269.6"/>
			<path class="st2" d="M188.7,234.4c-1.1-0.7-1.6-2-1.5-3.2c0-0.1,0-0.2,0.1-0.4c-1.2-0.4-2.5-0.7-3.8-0.9c-0.4,1.7-2,2.7-3.7,2.5
				c-0.5-0.1-1-0.3-1.5-0.6c-2.4,2.7-4.1,5.9-5.2,9.4c1.1,0.4,1.9,1.3,2.1,2.5c0.7-0.2,1.4-0.4,2-0.7
				C181.8,241.3,185.8,238.4,188.7,234.4"/>
			<path class="st2" d="M210.8,239.3c-0.2,0-0.5,0-0.7-0.1c-1.6-0.3-3.3,0-4.8,0.7c0.2,0.5,0.3,1.2,0.2,1.7c-0.1,0.8-0.5,1.5-1.1,2
				c2.3,3.2,4,6.7,5.2,10.4c0.7-1.8,1.1-3.6,1.4-5.5C211.5,245.5,211.4,242.4,210.8,239.3"/>
		</g>
	</g>
</g>
</svg>
