<?xml version="1.0" encoding="utf-8"?>
<!-- Generator: Adobe Illustrator 24.3.0, SVG Export Plug-In . SVG Version: 6.00 Build 0)  -->
<svg version="1.1" id="Layer_1" xmlns="http://www.w3.org/2000/svg" xmlns:xlink="http://www.w3.org/1999/xlink" x="0px" y="0px"
	 viewBox="0 0 379 325" style="enable-background:new 0 0 379 325;" xml:space="preserve">
<style type="text/css">
	.st0{fill:#0FB0E1;}
	.st1{opacity:0.5;}
	.st2{fill:#FFFFFF;}
</style>
<path class="st0" d="M220.9,229.4c-12.9,0.3-85,0-87.1,3.8c-1.9,3.5,1.1,10.7,4.5,10.7c2.8,0,39.9,3.5,61.4,2
	c-1.6,5-2.5,8.3-6.6,8.3c-4,0-12.9,0.8-12.9,0.8s18.6,0.7,22.6,0.7c1.1,0.2,0-1.4,2.5-1.4c1.8,0,2.9-0.7,5.4-7.2
	c0.5-1.3,0.9-2.4,1.2-3.3C226.1,238.3,233.6,229,220.9,229.4z"/>
<g class="st1">
	<g>
		<g>
			<path class="st2" d="M192,237.4c-0.1-0.2-0.1-0.3-0.1-0.5c0-0.2,0.1-0.3,0.2-0.4c-0.5-0.5-1.1-1-1.7-1.4
				c-0.2,0.3-0.5,0.4-0.8,0.3c-0.1,0-0.1,0-0.2,0c-0.8,1.1-1.8,1.9-3.1,2.3c-0.2,0.1-0.4,0.1-0.6,0.2c0,0,0,0.1,0,0.1
				c0,0.4-0.4,0.7-0.8,0.7v0.1c0.2,2,1.1,3.9,2.5,5.3c0.2-0.3,0.5-0.5,0.8-0.4C188.7,241.1,190.1,238.9,192,237.4"/>
			<path class="st2" d="M181.3,237.9c0.9,0.1,1.9,0.1,2.8,0c0-0.1,0-0.2,0-0.3c0.1-0.5,0.5-0.8,0.9-0.7c0,0,0,0,0,0
				c0.3-0.9,0.8-1.8,1.4-2.5c-0.1-0.1-0.2-0.3-0.2-0.4c-1.8,0.2-3.4,0.9-4.9,1.9c-0.1,0.3-0.2,0.7-0.2,1c0,0.3-0.1,0.7-0.1,1
				L181.3,237.9"/>
			<path class="st2" d="M187.9,233.8c0.4,0.1,0.7,0.1,1,0.3c0.2-0.3,0.5-0.5,0.9-0.5c0.1,0,0.1,0,0.2,0.1c0.2-0.5,0.3-1,0.5-1.5
				c-0.2-0.1-0.4-0.2-0.5-0.4c-0.6,0.4-1.8,1.2-2.3,1.5C187.9,233.5,187.9,233.7,187.9,233.8"/>
			<path class="st2" d="M190.7,232.3c-0.1,0.5-0.3,1-0.5,1.5c0.3,0.2,0.4,0.7,0.3,1c0.7,0.4,1.2,0.9,1.8,1.5
				c0.2-0.1,0.4-0.2,0.6-0.2c0.2,0,0.4,0.2,0.6,0.3c0.4-0.2,0.9-0.3,1.4-0.2h0.1c-0.4-1.9-1.7-3.5-3.4-4.5
				C191.4,232.1,191.1,232.3,190.7,232.3"/>
			<path class="st2" d="M186.2,233.8C186.2,233.7,186.2,233.7,186.2,233.8c0.1-0.5,0.5-0.8,0.9-0.8c0,0,0,0,0,0
				c0.2,0,0.3,0.1,0.4,0.2c0.5-0.4,1.8-1.2,2.3-1.6c0-0.1,0-0.2,0-0.3c0-0.1,0-0.1,0-0.2c-0.3-0.1-0.6-0.2-0.9-0.2
				c-3.3-0.5-6.6,1.5-7.7,4.7C182.8,234.6,184.5,234,186.2,233.8"/>
			<path class="st2" d="M193.2,237.7c-0.4,0.2-0.8,0.1-1.1-0.2c-2,1.5-3.3,3.7-3.6,6.1c0.4,0.1,0.7,0.5,0.6,1c0,0.1,0,0.2-0.1,0.3
				c2.5-0.3,4.6-1.9,5.6-4.2C194.3,239.6,193.8,238.7,193.2,237.7"/>
			<path class="st2" d="M187.3,244.3v-0.1c-1.5-1.4-2.5-3.4-2.6-5.5v-0.1c-0.3,0-0.5-0.2-0.7-0.5c-0.4,0-0.8,0.1-1.2,0.1
				c-0.7,0-1.2-0.1-1.7-0.1h-0.2c0.1,3.4,2.6,6.3,6,6.8l0.4,0.1C187.3,244.8,187.3,244.6,187.3,244.3"/>
			<path class="st2" d="M189.3,235.2c-0.3-0.2-0.4-0.5-0.4-0.8c0,0,0-0.1,0-0.1c-0.3-0.1-0.7-0.2-1-0.2c-0.1,0.4-0.5,0.7-1,0.6
				c-0.1,0-0.3-0.1-0.4-0.2c-0.6,0.7-1.1,1.5-1.4,2.4c0.3,0.1,0.5,0.3,0.5,0.6c0.2-0.1,0.4-0.1,0.5-0.2
				C187.5,237,188.5,236.2,189.3,235.2"/>
			<path class="st2" d="M195,236.5h-0.2c-0.4-0.1-0.9,0-1.2,0.2c0.1,0.1,0.1,0.3,0.1,0.5c0,0.2-0.1,0.4-0.3,0.5
				c0.6,0.8,1,1.7,1.4,2.7C195.1,239.1,195.2,237.8,195,236.5"/>
		</g>
	</g>
</g>
</svg>
