<svg xmlns="http://www.w3.org/2000/svg" width="70" height="70" viewBox="0 0 700 700" preserveAspectRatio="xMidYMid meet"><path d="M220 691c-1-9 3-509 4-552 1-23 5-35 12-32 6 2 15-8 18-23 4-16 16-34 27-42 21-14 27-38 7-26-7 4-10 3-5-1 4-5 23-10 43-12 26-3 43 2 63 20 15 12 26 28 23 35-3 10 7 15 28 14 3 0 6 23 8 51 1 28 6 54 12 57 5 3 10 110 12 257 2 138-1 249-5 246s-14 0-22 7c-14 12-225 12-225 1z" fill="#501600"/><path d="M220 691c-1-9 3-509 4-552 1-23 5-35 12-32 6 2 15-8 18-23 4-16 16-34 27-42 21-14 27-38 7-26-7 4-10 3-5-1 4-5 23-10 43-12 26-3 43 2 63 20 15 12 26 28 23 35-3 10 7 15 28 14 3 0 6 23 8 51 1 28 6 54 12 57 5 3 10 110 12 257 2 138-1 249-5 246s-14 0-22 7c-14 12-225 12-225 1zm23-36c-3-9-8-14-10-11-3 3-2 9 2 15 9 16 15 13 8-4z" fill="#2f292d"/><path d="M256 674c-21-20-20-29 6-59 19-22 30-25 85-25 51 0 65 3 70 18 4 9 13 22 21 28 13 9 12 14-6 32s-34 22-91 22c-50 0-74-4-85-16zm-11-289c1-242 8-279 66-340l28-29 26 24c14 13 37 49 52 79 25 54 26 64 31 274 3 158 2 217-7 217-8 0-11-46-11-154 0-149-1-155-22-170-31-22-110-21-137 2-19 16-21 29-24 167-2 83-3 51-2-70zm121-200c4-8 0-22-7-31-11-13-14-13-27 0-17 17-9 46 13 46 9 0 18-7 21-15z" fill="red"/></svg>