<svg xmlns="http://www.w3.org/2000/svg" width="70" height="70" viewBox="0 0 700 700" preserveAspectRatio="xMidYMid meet"><path d="M220 691c-1-9 3-509 4-552 1-23 5-35 12-32 6 2 15-8 18-23 4-16 16-34 27-42 21-14 27-38 7-26-7 4-10 3-5-1 4-5 23-10 43-12 26-3 43 2 63 20 15 12 26 28 23 35-3 10 7 15 28 14 3 0 6 23 8 51 1 28 6 54 12 57 5 3 10 110 12 257 2 138-1 249-5 246s-14 0-22 7c-14 12-225 12-225 1z" fill="#2f292d"/><path d="M252 678c-14-14-16-48-3-48 5 0 11-9 14-20 4-18 14-20 72-20 60 0 71 3 91 26 28 30 29 37 8 58-19 20-163 23-182 4zm-7-293c1-242 9-280 66-340l28-29 27 24c15 14 38 50 52 80 24 52 25 67 30 273 3 157 1 217-7 217s-11-47-11-154c0-149-1-155-22-170-27-19-93-21-128-3-25 12-25 15-31 167-5 139-6 133-4-65zm121-200c4-8 0-22-7-31-11-13-14-13-27 0-17 17-9 46 13 46 9 0 18-7 21-15z" fill="#7a4e00"/><path d="M252 678c-14-14-16-48-3-48 5 0 13-9 16-20 6-18 15-20 77-20 61 0 70 2 75 20 3 11 12 20 19 20 18 0 18 10-2 38-13 19-24 22-93 22-46 0-82-5-89-12zm-7-293c1-242 8-279 66-340l28-29 27 24c15 14 38 50 52 80 24 52 25 67 30 273 3 157 1 217-7 217s-11-47-11-154c0-149-1-155-22-170-31-22-110-21-137 2-19 16-21 29-24 167-2 83-3 51-2-70zm121-200c4-8 0-22-7-31-11-13-14-13-27 0-17 17-9 46 13 46 9 0 18-7 21-15z" fill="#ff0"/></svg>